M48
; DRILL file {KiCad 9.0.9} date 2026-08-02T19:51:57+0000
; FORMAT={-:-/ absolute / metric / decimal}
; #@! TF.CreationDate,2026-08-02T19:51:57+00:00
; #@! TF.GenerationSoftware,Kicad,Pcbnew,9.0.9
; #@! TF.FileFunction,Plated,1,2,PTH
FMAT,2
METRIC
; #@! TA.AperFunction,Plated,PTH,ViaDrill
T1C0.300
; #@! TA.AperFunction,Plated,PTH,ViaDrill
T2C0.350
; #@! TA.AperFunction,Plated,PTH,ComponentDrill
T3C1.020
%
G90
G05
T1
X28.2Y-11.325
X29.4Y-15.0
X60.2Y-28.35
T2
X7.5Y-20.0
X9.5Y-53.0
X12.0Y-15.0
X14.5Y-7.675
X14.5Y-8.975
X15.0Y-42.5
X15.8Y-7.025
X15.8Y-8.325
X19.5Y-31.0
X19.5Y-34.5
X20.0Y-18.0
X21.1Y-14.0
X22.0Y-8.0
X22.0Y-17.0
X24.0Y-32.0
X25.0Y-16.5
X25.0Y-20.0
X27.0Y-27.0
X27.6Y-14.0
X28.0Y-33.0
X28.5Y-3.0
X28.5Y-9.5
X28.5Y-56.2
X29.5Y-14.0
X32.5Y-56.0
X36.0Y-54.0
X39.5Y-56.5
X42.0Y-13.0
X42.0Y-52.0
X42.0Y-56.5
X45.0Y-20.0
X47.0Y-26.0
X48.0Y-32.0
X50.9Y-31.0
X52.0Y-19.0
X53.0Y-33.5
X54.0Y-20.0
X55.5Y-24.0
X55.5Y-29.0
X56.0Y-26.4
X56.9Y-25.0
X62.0Y-25.0
X62.0Y-31.0
X63.0Y-34.0
X66.0Y-45.0
X68.0Y-7.0
X70.9Y-16.5
X70.9Y-22.5
X72.0Y-9.54
X75.0Y-54.0
X80.2Y-29.5
X80.5Y-34.75
X81.5Y-45.5
X81.5Y-54.5
T3
X74.0Y-7.0
X74.0Y-9.54
X74.0Y-12.08
X74.0Y-14.62
X74.0Y-17.16
X74.0Y-19.7
X74.0Y-22.24
M30
