%TF.GenerationSoftware,KiCad,Pcbnew,9.0.9*%
%TF.CreationDate,2026-08-02T19:51:54+00:00*%
%TF.ProjectId,carrier,63617272-6965-4722-9e6b-696361645f70,rev?*%
%TF.SameCoordinates,Original*%
%TF.FileFunction,Copper,L1,Top*%
%TF.FilePolarity,Positive*%
%FSLAX46Y46*%
G04 Gerber Fmt 4.6, Leading zero omitted, Abs format (unit mm)*
G04 Created by KiCad (PCBNEW 9.0.9) date 2026-08-02 19:51:54*
%MOMM*%
%LPD*%
G01*
G04 APERTURE LIST*
%TA.AperFunction,SMDPad,CuDef*%
%ADD10R,1.000000X1.500000*%
%TD*%
%TA.AperFunction,SMDPad,CuDef*%
%ADD11R,0.800000X0.800000*%
%TD*%
%TA.AperFunction,SMDPad,CuDef*%
%ADD12R,1.400000X1.500000*%
%TD*%
%TA.AperFunction,ComponentPad*%
%ADD13R,1.800000X1.800000*%
%TD*%
%TA.AperFunction,ComponentPad*%
%ADD14C,1.800000*%
%TD*%
%TA.AperFunction,SMDPad,CuDef*%
%ADD15R,0.550000X0.800000*%
%TD*%
%TA.AperFunction,SMDPad,CuDef*%
%ADD16R,1.000000X3.500000*%
%TD*%
%TA.AperFunction,SMDPad,CuDef*%
%ADD17R,1.500000X3.400000*%
%TD*%
%TA.AperFunction,SMDPad,CuDef*%
%ADD18R,0.800000X1.000000*%
%TD*%
%TA.AperFunction,SMDPad,CuDef*%
%ADD19R,1.500000X0.700000*%
%TD*%
%TA.AperFunction,SMDPad,CuDef*%
%ADD20R,1.325000X0.500000*%
%TD*%
%TA.AperFunction,SMDPad,CuDef*%
%ADD21R,0.300000X1.300000*%
%TD*%
%TA.AperFunction,SMDPad,CuDef*%
%ADD22R,1.800000X2.200000*%
%TD*%
%TA.AperFunction,SMDPad,CuDef*%
%ADD23R,1.000000X1.600000*%
%TD*%
%TA.AperFunction,SMDPad,CuDef*%
%ADD24R,0.775000X0.250000*%
%TD*%
%TA.AperFunction,SMDPad,CuDef*%
%ADD25R,0.800000X1.200000*%
%TD*%
%TA.AperFunction,SMDPad,CuDef*%
%ADD26R,0.950000X1.100000*%
%TD*%
%TA.AperFunction,SMDPad,CuDef*%
%ADD27R,0.559000X0.406000*%
%TD*%
%TA.AperFunction,ViaPad*%
%ADD28C,0.700000*%
%TD*%
%TA.AperFunction,ViaPad*%
%ADD29C,0.550000*%
%TD*%
%TA.AperFunction,ViaPad*%
%ADD30C,0.500000*%
%TD*%
%TA.AperFunction,Conductor*%
%ADD31C,0.250000*%
%TD*%
%TA.AperFunction,Conductor*%
%ADD32C,0.100000*%
%TD*%
%TA.AperFunction,Conductor*%
%ADD33C,0.150000*%
%TD*%
%TA.AperFunction,Conductor*%
%ADD34C,0.600000*%
%TD*%
%TA.AperFunction,Conductor*%
%ADD35C,0.200000*%
%TD*%
%TA.AperFunction,Conductor*%
%ADD36C,0.220000*%
%TD*%
%TA.AperFunction,Conductor*%
%ADD37C,0.400000*%
%TD*%
%TA.AperFunction,Conductor*%
%ADD38C,0.300000*%
%TD*%
%TA.AperFunction,Conductor*%
%ADD39C,0.350000*%
%TD*%
%TA.AperFunction,Conductor*%
%ADD40C,0.180000*%
%TD*%
G04 APERTURE END LIST*
D10*
%TO.P,TP3,1,GND*%
%TO.N,GND*%
X8000000Y-52000000D03*
%TD*%
D11*
%TO.P,R3,1,1*%
%TO.N,USB_5V*%
X68100000Y-15000000D03*
%TO.P,R3,2,2*%
%TO.N,USB_SENSE*%
X69900000Y-15000000D03*
%TD*%
%TO.P,R2,1,1*%
%TO.N,3V3*%
X55100000Y-22000000D03*
%TO.P,R2,2,2*%
%TO.N,SDA*%
X56900000Y-22000000D03*
%TD*%
%TO.P,C6,1,1*%
%TO.N,BAT_FUSED*%
X13000000Y-12100000D03*
%TO.P,C6,2,2*%
%TO.N,GND*%
X13000000Y-13900000D03*
%TD*%
D12*
%TO.P,SW3,1,CONTACT_A*%
%TO.N,BTN_B*%
X77300000Y-48100000D03*
%TO.P,SW3,2,CONTACT_B*%
%TO.N,GND*%
X80700000Y-48100000D03*
%TO.P,SW3,3,CONTACT_A*%
%TO.N,BTN_B*%
X77300000Y-53900000D03*
%TO.P,SW3,4,CONTACT_B*%
%TO.N,GND*%
X80700000Y-53900000D03*
%TD*%
D11*
%TO.P,R8,1,1*%
%TO.N,BAT_FUSED*%
X27600000Y-16000000D03*
%TO.P,R8,2,2*%
%TO.N,PROT_UV*%
X29400000Y-16000000D03*
%TD*%
D13*
%TO.P,J5,1,GPIO47*%
%TO.N,BTN_A*%
X74000000Y-7000000D03*
D14*
%TO.P,J5,2,GPIO8*%
%TO.N,BTN_B*%
X74000000Y-9540000D03*
%TO.P,J5,3,GPIO5*%
%TO.N,POWER_SW*%
X74000000Y-12080000D03*
%TO.P,J5,4,VCC*%
%TO.N,USB_5V*%
X74000000Y-14620000D03*
%TO.P,J5,5,GND*%
%TO.N,GND*%
X74000000Y-17160000D03*
%TO.P,J5,6,GPIO6*%
%TO.N,USB_SENSE*%
X74000000Y-19700000D03*
%TO.P,J5,7,ALERT*%
%TO.N,ALERT*%
X74000000Y-22240000D03*
%TD*%
D11*
%TO.P,R1,1,1*%
%TO.N,3V3*%
X49100000Y-34000000D03*
%TO.P,R1,2,2*%
%TO.N,SCL*%
X50900000Y-34000000D03*
%TD*%
D15*
%TO.P,U2,1,OUT*%
%TO.N,DISP_3V3*%
X20800000Y-28050000D03*
%TO.P,U2,2,GND*%
%TO.N,GND*%
X20800000Y-29000000D03*
%TO.P,U2,3,FLG*%
%TO.N,N/C*%
X20800000Y-29950000D03*
%TO.P,U2,4,EN*%
%TO.N,LCD_POWER_EN*%
X23200000Y-29950000D03*
%TO.P,U2,5,IN*%
%TO.N,3V3*%
X23200000Y-28050000D03*
%TD*%
D16*
%TO.P,J1,1,+*%
%TO.N,BAT_RAW*%
X4000000Y-18000000D03*
%TO.P,J1,2,-*%
%TO.N,GND*%
X6000000Y-18000000D03*
D17*
%TO.P,J1,MP,MOUNT*%
%TO.N,N/C*%
X1650000Y-23750000D03*
X8350000Y-23750000D03*
%TD*%
D11*
%TO.P,C4,1,1*%
%TO.N,DISP_3V3*%
X18000000Y-32100000D03*
%TO.P,C4,2,2*%
%TO.N,GND*%
X18000000Y-33900000D03*
%TD*%
D18*
%TO.P,SW1,*%
%TO.N,*%
X77780000Y-30350000D03*
X75570000Y-30350000D03*
X77780000Y-37650000D03*
X75570000Y-37650000D03*
D19*
%TO.P,SW1,1,OFF*%
%TO.N,GND*%
X78430000Y-31750000D03*
%TO.P,SW1,2,COMMON*%
%TO.N,POWER_SW*%
X78430000Y-34750000D03*
%TO.P,SW1,3,ON*%
%TO.N,N/C*%
X78430000Y-36250000D03*
%TD*%
D10*
%TO.P,TP5,1,SDA*%
%TO.N,SDA*%
X47000000Y-25000000D03*
%TD*%
D11*
%TO.P,C2,1,1*%
%TO.N,VBAT_SAFE*%
X54000000Y-30100000D03*
%TO.P,C2,2,2*%
%TO.N,GND*%
X54000000Y-31900000D03*
%TD*%
D10*
%TO.P,TP2,1,3V3*%
%TO.N,3V3*%
X42000000Y-12000000D03*
%TD*%
D11*
%TO.P,R4,1,1*%
%TO.N,USB_SENSE*%
X69100000Y-18000000D03*
%TO.P,R4,2,2*%
%TO.N,GND*%
X70900000Y-18000000D03*
%TD*%
D10*
%TO.P,TP6,1,SCL*%
%TO.N,SCL*%
X48000000Y-31000000D03*
%TD*%
D11*
%TO.P,C1,1,1*%
%TO.N,VBAT_SAFE*%
X51100000Y-24000000D03*
%TO.P,C1,2,2*%
%TO.N,GND*%
X52900000Y-24000000D03*
%TD*%
D20*
%TO.P,U3,1,GATE*%
%TO.N,PROT_GATE*%
X24863000Y-10025000D03*
%TO.P,U3,2,VOUT*%
%TO.N,VBAT_SAFE*%
X24863000Y-10675000D03*
%TO.P,U3,3,FAULT*%
%TO.N,N/C*%
X24863000Y-11325000D03*
%TO.P,U3,4,SHDN*%
%TO.N,PROT_SHDN*%
X24863000Y-11975000D03*
%TO.P,U3,5,VIN*%
%TO.N,BAT_FUSED*%
X27137000Y-11975000D03*
%TO.P,U3,6,UV*%
%TO.N,PROT_UV*%
X27137000Y-11325000D03*
%TO.P,U3,7,OV*%
%TO.N,GND*%
X27137000Y-10675000D03*
%TO.P,U3,8,GND*%
X27137000Y-10025000D03*
%TD*%
D16*
%TO.P,J2,1,+*%
%TO.N,VBAT_SAFE*%
X11000000Y-41000000D03*
%TO.P,J2,2,-*%
%TO.N,GND*%
X13000000Y-41000000D03*
D17*
%TO.P,J2,MP,MOUNT*%
%TO.N,N/C*%
X8650000Y-46750000D03*
X15350000Y-46750000D03*
%TD*%
D21*
%TO.P,J4,1,DISP_3V3*%
%TO.N,DISP_3V3*%
X30000000Y-50500000D03*
%TO.P,J4,2,LCD_BL*%
%TO.N,LCD_BL*%
X30500000Y-50500000D03*
%TO.P,J4,3,GND*%
%TO.N,GND*%
X31000000Y-50500000D03*
%TO.P,J4,4,SCLK*%
%TO.N,SCLK*%
X31500000Y-50500000D03*
%TO.P,J4,5,MOSI*%
%TO.N,MOSI*%
X32000000Y-50500000D03*
%TO.P,J4,6,MISO*%
%TO.N,MISO*%
X32500000Y-50500000D03*
%TO.P,J4,7,LCD_DC*%
%TO.N,LCD_DC*%
X33000000Y-50500000D03*
%TO.P,J4,8,LCD_RST*%
%TO.N,LCD_RST*%
X33500000Y-50500000D03*
%TO.P,J4,9,LCD_CS*%
%TO.N,LCD_CS*%
X34000000Y-50500000D03*
%TO.P,J4,10,SD_CS*%
%TO.N,SD_CS*%
X34500000Y-50500000D03*
%TO.P,J4,11,LCD_POWER_EN*%
%TO.N,LCD_POWER_EN*%
X35000000Y-50500000D03*
%TO.P,J4,12,TOUCH_CS*%
%TO.N,TOUCH_CS*%
X35500000Y-50500000D03*
%TO.P,J4,13,SCL*%
%TO.N,SCL*%
X36000000Y-50500000D03*
%TO.P,J4,14,SDA*%
%TO.N,SDA*%
X36500000Y-50500000D03*
%TO.P,J4,15,INT*%
%TO.N,INT*%
X37000000Y-50500000D03*
%TO.P,J4,16,BUSY*%
%TO.N,BUSY*%
X37500000Y-50500000D03*
%TO.P,J4,17,X1*%
%TO.N,X1*%
X38000000Y-50500000D03*
%TO.P,J4,18,X2*%
%TO.N,X2*%
X38500000Y-50500000D03*
D22*
%TO.P,J4,MP,MOUNT*%
%TO.N,N/C*%
X28100000Y-53750000D03*
X40400000Y-53750000D03*
%TD*%
D23*
%TO.P,F1,1,1*%
%TO.N,BAT_RAW*%
X8500000Y-8000000D03*
%TO.P,F1,2,2*%
%TO.N,BAT_FUSED*%
X11500000Y-8000000D03*
%TD*%
D24*
%TO.P,U1,1,CTG*%
%TO.N,GND*%
X57012000Y-27250000D03*
%TO.P,U1,2,CELL*%
%TO.N,VBAT_SAFE*%
X57012000Y-27750000D03*
%TO.P,U1,3,VDD*%
X57012000Y-28250000D03*
%TO.P,U1,4,GND*%
%TO.N,GND*%
X57012000Y-28750000D03*
%TO.P,U1,5,ALRT*%
%TO.N,ALERT*%
X58988000Y-28750000D03*
%TO.P,U1,6,QSTRT*%
%TO.N,GND*%
X58988000Y-28250000D03*
%TO.P,U1,7,SCL*%
%TO.N,SCL*%
X58988000Y-27750000D03*
%TO.P,U1,8,SDA*%
%TO.N,SDA*%
X58988000Y-27250000D03*
D25*
%TO.P,U1,9,EP*%
%TO.N,GND*%
X58000000Y-28000000D03*
%TD*%
D10*
%TO.P,TP1,1,VBAT_SAFE*%
%TO.N,VBAT_SAFE*%
X8000000Y-40000000D03*
%TD*%
D11*
%TO.P,R5,1,1*%
%TO.N,BAT_FUSED*%
X21100000Y-16000000D03*
%TO.P,R5,2,2*%
%TO.N,PROT_SHDN*%
X22900000Y-16000000D03*
%TD*%
D10*
%TO.P,TP4,1,USB_5V*%
%TO.N,USB_5V*%
X65000000Y-12000000D03*
%TD*%
D12*
%TO.P,SW2,1,CONTACT_A*%
%TO.N,BTN_A*%
X77300000Y-39100000D03*
%TO.P,SW2,2,CONTACT_B*%
%TO.N,GND*%
X80700000Y-39100000D03*
%TO.P,SW2,3,CONTACT_A*%
%TO.N,BTN_A*%
X77300000Y-44900000D03*
%TO.P,SW2,4,CONTACT_B*%
%TO.N,GND*%
X80700000Y-44900000D03*
%TD*%
D11*
%TO.P,R6,1,1*%
%TO.N,LCD_POWER_EN*%
X25100000Y-32000000D03*
%TO.P,R6,2,2*%
%TO.N,GND*%
X26900000Y-32000000D03*
%TD*%
%TO.P,C3,1,1*%
%TO.N,3V3*%
X27000000Y-24100000D03*
%TO.P,C3,2,2*%
%TO.N,GND*%
X27000000Y-25900000D03*
%TD*%
D26*
%TO.P,C7,1,1*%
%TO.N,VBAT_SAFE*%
X18000000Y-14975000D03*
%TO.P,C7,2,2*%
%TO.N,GND*%
X18000000Y-17025000D03*
%TD*%
D21*
%TO.P,J3,1,3V3*%
%TO.N,3V3*%
X30000000Y-4500000D03*
%TO.P,J3,2,LCD_BL*%
%TO.N,LCD_BL*%
X30500000Y-4500000D03*
%TO.P,J3,3,GND*%
%TO.N,GND*%
X31000000Y-4500000D03*
%TO.P,J3,4,SCLK*%
%TO.N,SCLK*%
X31500000Y-4500000D03*
%TO.P,J3,5,MOSI*%
%TO.N,MOSI*%
X32000000Y-4500000D03*
%TO.P,J3,6,MISO*%
%TO.N,MISO*%
X32500000Y-4500000D03*
%TO.P,J3,7,LCD_DC*%
%TO.N,LCD_DC*%
X33000000Y-4500000D03*
%TO.P,J3,8,LCD_RST*%
%TO.N,LCD_RST*%
X33500000Y-4500000D03*
%TO.P,J3,9,LCD_CS*%
%TO.N,LCD_CS*%
X34000000Y-4500000D03*
%TO.P,J3,10,SD_CS*%
%TO.N,SD_CS*%
X34500000Y-4500000D03*
%TO.P,J3,11,LCD_POWER_EN*%
%TO.N,LCD_POWER_EN*%
X35000000Y-4500000D03*
%TO.P,J3,12,TOUCH_CS*%
%TO.N,TOUCH_CS*%
X35500000Y-4500000D03*
%TO.P,J3,13,SCL*%
%TO.N,SCL*%
X36000000Y-4500000D03*
%TO.P,J3,14,SDA*%
%TO.N,SDA*%
X36500000Y-4500000D03*
%TO.P,J3,15,INT*%
%TO.N,INT*%
X37000000Y-4500000D03*
%TO.P,J3,16,BUSY*%
%TO.N,BUSY*%
X37500000Y-4500000D03*
%TO.P,J3,17,X1*%
%TO.N,X1*%
X38000000Y-4500000D03*
%TO.P,J3,18,X2*%
%TO.N,X2*%
X38500000Y-4500000D03*
D22*
%TO.P,J3,MP,MOUNT*%
%TO.N,N/C*%
X28100000Y-7750000D03*
X40400000Y-7750000D03*
%TD*%
D11*
%TO.P,R7,1,1*%
%TO.N,3V3*%
X67100000Y-34000000D03*
%TO.P,R7,2,2*%
%TO.N,ALERT*%
X68900000Y-34000000D03*
%TD*%
%TO.P,C5,1,1*%
%TO.N,USB_SENSE*%
X69100000Y-21000000D03*
%TO.P,C5,2,2*%
%TO.N,GND*%
X70900000Y-21000000D03*
%TD*%
D27*
%TO.P,Q1,1,S1*%
%TO.N,FET_COMMON*%
X17263000Y-7025000D03*
%TO.P,Q1,2,G1*%
%TO.N,PROT_GATE*%
X17263000Y-7675000D03*
%TO.P,Q1,3,S2*%
%TO.N,FET_COMMON*%
X17263000Y-8325000D03*
%TO.P,Q1,4,G2*%
%TO.N,PROT_GATE*%
X17263000Y-8975000D03*
%TO.P,Q1,5,D2*%
%TO.N,VBAT_SAFE*%
X18737000Y-8975000D03*
%TO.P,Q1,6,D2*%
X18737000Y-8325000D03*
%TO.P,Q1,7,D1*%
%TO.N,BAT_FUSED*%
X18737000Y-7675000D03*
%TO.P,Q1,8,D1*%
X18737000Y-7025000D03*
%TD*%
D28*
%TO.N,GND*%
X81500000Y-54500000D03*
X81500000Y-45500000D03*
X70900000Y-16500000D03*
X55500000Y-24000000D03*
X12000000Y-15000000D03*
X22000000Y-17000000D03*
X55500000Y-29000000D03*
X28500000Y-56200000D03*
X19500000Y-31000000D03*
X53000000Y-33500000D03*
X7500000Y-20000000D03*
X70900000Y-22500000D03*
X27000000Y-27000000D03*
X28500000Y-9500000D03*
X9500000Y-53000000D03*
X19500000Y-34500000D03*
X15000000Y-42500000D03*
X56000000Y-26400000D03*
D29*
X60200000Y-28350000D03*
D28*
X28000000Y-33000000D03*
X80200000Y-29500000D03*
%TO.N,BAT_FUSED*%
X29500000Y-14000000D03*
X21100000Y-14000000D03*
X27600000Y-14000000D03*
%TO.N,VBAT_SAFE*%
X52000000Y-19000000D03*
X20000000Y-18000000D03*
%TO.N,3V3*%
X25000000Y-16500000D03*
X28500000Y-3000000D03*
X45000000Y-20000000D03*
X25000000Y-20000000D03*
X63000000Y-34000000D03*
X54000000Y-20000000D03*
X42000000Y-13000000D03*
%TO.N,LCD_POWER_EN*%
X24000000Y-32000000D03*
X32500000Y-56000000D03*
%TO.N,SCL*%
X62000000Y-31000000D03*
X50900000Y-31000000D03*
X36000000Y-54000000D03*
X48000000Y-32000000D03*
%TO.N,SDA*%
X47000000Y-26000000D03*
X56900000Y-25000000D03*
X62000000Y-25000000D03*
X42000000Y-56500000D03*
X39500000Y-56500000D03*
X42000000Y-52000000D03*
%TO.N,BTN_A*%
X66000000Y-45000000D03*
X68000000Y-7000000D03*
%TO.N,BTN_B*%
X72000000Y-9540000D03*
X75000000Y-54000000D03*
%TO.N,POWER_SW*%
X80500000Y-34750000D03*
%TO.N,FET_COMMON*%
X15800000Y-8325000D03*
X15800000Y-7025000D03*
%TO.N,PROT_GATE*%
X14500000Y-7675000D03*
X22000000Y-8000000D03*
X14500000Y-8975000D03*
D30*
%TO.N,PROT_UV*%
X28200000Y-11325000D03*
X29400000Y-15000000D03*
%TD*%
D31*
%TO.N,GND*%
X52900000Y-24000000D02*
X55500000Y-24000000D01*
X27137000Y-10675000D02*
X27137000Y-10025000D01*
X26900000Y-32000000D02*
X28000000Y-33000000D01*
X13000000Y-41000000D02*
X15000000Y-42500000D01*
X20800000Y-29000000D02*
X19500000Y-29000000D01*
X78430000Y-31750000D02*
X80200000Y-31750000D01*
X27000000Y-25900000D02*
X27000000Y-27000000D01*
X80700000Y-39100000D02*
X82000000Y-39100000D01*
X18000000Y-33900000D02*
X19500000Y-34500000D01*
X57013000Y-28750000D02*
X55500000Y-29000000D01*
X19500000Y-29000000D02*
X19500000Y-31000000D01*
X70900000Y-18000000D02*
X70900000Y-16500000D01*
X18000000Y-17025000D02*
X19000000Y-17000000D01*
X82000000Y-53900000D02*
X80700000Y-53900000D01*
X57013000Y-27250000D02*
X56000000Y-27250000D01*
X70900000Y-21000000D02*
X70900000Y-22500000D01*
X80700000Y-48100000D02*
X82000000Y-48100000D01*
X80700000Y-53900000D02*
X81500000Y-54500000D01*
X56000000Y-27250000D02*
X56000000Y-26400000D01*
X6000000Y-18000000D02*
X7500000Y-18000000D01*
X82000000Y-39100000D02*
X82000000Y-44900000D01*
D32*
X58500000Y-28400000D02*
X58987000Y-28250000D01*
D31*
X54000000Y-31900000D02*
X53000000Y-33500000D01*
X7500000Y-18000000D02*
X7500000Y-20000000D01*
D32*
X58987000Y-28250000D02*
X60200000Y-28350000D01*
D31*
X19000000Y-17000000D02*
X22000000Y-17000000D01*
D33*
X31000000Y-50500000D02*
X31000000Y-53500000D01*
X31000000Y-53500000D02*
X28500000Y-56200000D01*
D31*
X82000000Y-48100000D02*
X82000000Y-53900000D01*
X27137000Y-10025000D02*
X28500000Y-9500000D01*
X8000000Y-52000000D02*
X9500000Y-53000000D01*
X80200000Y-31750000D02*
X80200000Y-29500000D01*
D32*
X58000000Y-28400000D02*
X58500000Y-28400000D01*
D31*
X13000000Y-13900000D02*
X12000000Y-15000000D01*
X80700000Y-44900000D02*
X81500000Y-45500000D01*
D33*
X31000000Y-4500000D02*
X31000000Y-50500000D01*
D31*
X82000000Y-44900000D02*
X80700000Y-44900000D01*
D34*
%TO.N,BAT_RAW*%
X4000000Y-18000000D02*
X2000000Y-18000000D01*
X2000000Y-5500000D02*
X8500000Y-5500000D01*
X8500000Y-5500000D02*
X8500000Y-8000000D01*
X2000000Y-18000000D02*
X2000000Y-5500000D01*
D31*
%TO.N,BAT_FUSED*%
X11500000Y-8000000D02*
X10000000Y-10000000D01*
X29000000Y-11975000D02*
X29500000Y-14000000D01*
D35*
X18736000Y-7675000D02*
X21000000Y-6000000D01*
D31*
X10000000Y-12100000D02*
X13000000Y-12100000D01*
X10000000Y-10000000D02*
X10000000Y-12100000D01*
X20000000Y-4000000D02*
X20000000Y-7025000D01*
X20000000Y-7025000D02*
X18736000Y-7025000D01*
X11500000Y-8000000D02*
X11500000Y-4000000D01*
X27600000Y-14000000D02*
X27600000Y-16000000D01*
D35*
X21000000Y-6000000D02*
X29500000Y-6000000D01*
X29500000Y-11975000D02*
X27137000Y-11975000D01*
D31*
X18736000Y-7025000D02*
X18736000Y-7675000D01*
X21100000Y-14000000D02*
X21100000Y-16000000D01*
D35*
X29500000Y-6000000D02*
X29500000Y-11975000D01*
D31*
X11500000Y-4000000D02*
X20000000Y-4000000D01*
D36*
%TO.N,VBAT_SAFE*%
X18736000Y-8975000D02*
X21500000Y-9200000D01*
D37*
X16500000Y-18000000D02*
X20000000Y-18000000D01*
D34*
X16500000Y-14000000D02*
X16500000Y-21000000D01*
X14000000Y-36000000D02*
X8000000Y-36000000D01*
D31*
X54000000Y-26000000D02*
X55300000Y-26000000D01*
X55300000Y-26000000D02*
X55300000Y-27750000D01*
D37*
X18736000Y-8975000D02*
X20000000Y-11000000D01*
D31*
X54000000Y-26000000D02*
X54000000Y-30100000D01*
D34*
X16500000Y-21000000D02*
X14000000Y-21000000D01*
D37*
X20000000Y-13000000D02*
X18000000Y-14975000D01*
D34*
X8000000Y-40000000D02*
X10000000Y-40000000D01*
D36*
X21500000Y-9200000D02*
X23000000Y-10675000D01*
D31*
X50000000Y-22000000D02*
X51100000Y-24000000D01*
D37*
X20000000Y-11000000D02*
X20000000Y-13000000D01*
D34*
X20000000Y-13000000D02*
X16500000Y-14000000D01*
D31*
X51100000Y-24000000D02*
X54000000Y-26000000D01*
X50000000Y-21000000D02*
X50000000Y-22000000D01*
D34*
X14000000Y-21000000D02*
X14000000Y-36000000D01*
D31*
X52000000Y-19000000D02*
X50000000Y-21000000D01*
X55300000Y-27750000D02*
X57013000Y-27750000D01*
X57013000Y-27750000D02*
X57013000Y-28250000D01*
D36*
X23000000Y-10675000D02*
X24863000Y-10675000D01*
X18736000Y-8325000D02*
X18736000Y-8975000D01*
D34*
X10000000Y-40000000D02*
X11000000Y-41000000D01*
X8000000Y-36000000D02*
X8000000Y-40000000D01*
D38*
%TO.N,3V3*%
X25000000Y-16500000D02*
X25000000Y-20000000D01*
D35*
X45000000Y-36000000D02*
X49100000Y-34000000D01*
D31*
X27000000Y-24100000D02*
X25000000Y-24100000D01*
D35*
X63000000Y-34000000D02*
X67100000Y-34000000D01*
X42000000Y-13000000D02*
X42000000Y-12000000D01*
X54000000Y-20000000D02*
X55100000Y-22000000D01*
X45000000Y-20000000D02*
X45000000Y-36000000D01*
D38*
X25000000Y-20000000D02*
X25000000Y-28050000D01*
D35*
X30000000Y-4500000D02*
X28500000Y-3000000D01*
D38*
X25000000Y-28050000D02*
X23200000Y-28050000D01*
D39*
%TO.N,DISP_3V3*%
X25000000Y-48000000D02*
X30000000Y-48000000D01*
D33*
X30000000Y-48000000D02*
X30000000Y-50500000D01*
D39*
X18000000Y-28050000D02*
X18000000Y-32100000D01*
X16000000Y-38000000D02*
X25000000Y-45000000D01*
X18000000Y-28050000D02*
X16000000Y-30000000D01*
X16000000Y-30000000D02*
X16000000Y-38000000D01*
X20800000Y-28050000D02*
X18000000Y-28050000D01*
X25000000Y-45000000D02*
X25000000Y-48000000D01*
D33*
%TO.N,LCD_BL*%
X30500000Y-4500000D02*
X30500000Y-50500000D01*
%TO.N,SCLK*%
X31500000Y-4500000D02*
X31500000Y-50500000D01*
%TO.N,MOSI*%
X32000000Y-4500000D02*
X32000000Y-50500000D01*
%TO.N,MISO*%
X32500000Y-4500000D02*
X32500000Y-50500000D01*
%TO.N,LCD_DC*%
X33000000Y-4500000D02*
X33000000Y-50500000D01*
%TO.N,LCD_RST*%
X33500000Y-4500000D02*
X33500000Y-50500000D01*
%TO.N,LCD_CS*%
X34000000Y-4500000D02*
X34000000Y-50500000D01*
%TO.N,SD_CS*%
X34500000Y-4500000D02*
X34500000Y-50500000D01*
%TO.N,LCD_POWER_EN*%
X35000000Y-54500000D02*
X32500000Y-56000000D01*
X35000000Y-4500000D02*
X35000000Y-50500000D01*
D35*
X24000000Y-32000000D02*
X24000000Y-30000000D01*
X24000000Y-30000000D02*
X23200000Y-29950000D01*
X24000000Y-32000000D02*
X25100000Y-32000000D01*
D33*
X35000000Y-50500000D02*
X35000000Y-54500000D01*
%TO.N,TOUCH_CS*%
X35500000Y-4500000D02*
X35500000Y-50500000D01*
%TO.N,SCL*%
X36000000Y-50500000D02*
X36000000Y-54000000D01*
X36000000Y-4500000D02*
X36000000Y-50500000D01*
D35*
X62000000Y-27750000D02*
X58987000Y-27750000D01*
X62000000Y-31000000D02*
X62000000Y-27750000D01*
X48000000Y-32000000D02*
X48000000Y-31000000D01*
X50900000Y-31000000D02*
X50900000Y-34000000D01*
D33*
%TO.N,SDA*%
X36500000Y-53500000D02*
X39500000Y-56500000D01*
D35*
X62000000Y-25000000D02*
X62000000Y-27250000D01*
X56900000Y-25000000D02*
X56900000Y-22000000D01*
D33*
X36500000Y-50500000D02*
X36500000Y-53500000D01*
D35*
X47000000Y-26000000D02*
X47000000Y-25000000D01*
X62000000Y-27250000D02*
X58987000Y-27250000D01*
X42000000Y-56500000D02*
X42000000Y-52000000D01*
D33*
X36500000Y-4500000D02*
X36500000Y-50500000D01*
%TO.N,INT*%
X37000000Y-4500000D02*
X37000000Y-50500000D01*
%TO.N,BUSY*%
X37500000Y-4500000D02*
X37500000Y-50500000D01*
%TO.N,X1*%
X38000000Y-4500000D02*
X38000000Y-50500000D01*
%TO.N,X2*%
X38500000Y-4500000D02*
X38500000Y-50500000D01*
D31*
%TO.N,BTN_A*%
X74000000Y-7000000D02*
X68000000Y-7000000D01*
X74500000Y-45000000D02*
X75500000Y-44900000D01*
X75500000Y-44900000D02*
X77300000Y-44900000D01*
X75500000Y-39100000D02*
X77300000Y-39100000D01*
X66000000Y-45000000D02*
X74500000Y-45000000D01*
X75500000Y-44900000D02*
X75500000Y-39100000D01*
%TO.N,BTN_B*%
X75500000Y-53900000D02*
X75500000Y-48100000D01*
X74000000Y-9540000D02*
X72000000Y-9540000D01*
X75500000Y-53900000D02*
X77300000Y-53900000D01*
X75000000Y-54000000D02*
X75500000Y-53900000D01*
X75500000Y-48100000D02*
X77300000Y-48100000D01*
%TO.N,POWER_SW*%
X80500000Y-34750000D02*
X78430000Y-34750000D01*
D38*
%TO.N,USB_5V*%
X74000000Y-14620000D02*
X72000000Y-14620000D01*
D31*
X70000000Y-13000000D02*
X65000000Y-12000000D01*
D38*
X70000000Y-13000000D02*
X68100000Y-15000000D01*
X72000000Y-14620000D02*
X70000000Y-13000000D01*
D35*
%TO.N,USB_SENSE*%
X68500000Y-16500000D02*
X69100000Y-18000000D01*
X69100000Y-19700000D02*
X74000000Y-19700000D01*
X69100000Y-18000000D02*
X69100000Y-21000000D01*
X69900000Y-15000000D02*
X68500000Y-16500000D01*
%TO.N,ALERT*%
X62000000Y-32000000D02*
X67000000Y-32000000D01*
X58987000Y-28750000D02*
X60000000Y-30000000D01*
X72000000Y-24500000D02*
X74000000Y-22240000D01*
X67000000Y-32000000D02*
X68900000Y-34000000D01*
X67000000Y-32000000D02*
X68000000Y-24500000D01*
X60000000Y-30000000D02*
X62000000Y-32000000D01*
X68000000Y-24500000D02*
X72000000Y-24500000D01*
D40*
%TO.N,FET_COMMON*%
X17264000Y-7025000D02*
X15800000Y-7025000D01*
X17264000Y-8325000D02*
X15800000Y-8325000D01*
%TO.N,PROT_GATE*%
X17264000Y-8975000D02*
X14500000Y-8975000D01*
X24000000Y-8000000D02*
X24000000Y-10025000D01*
X17264000Y-7675000D02*
X14500000Y-7675000D01*
X22000000Y-8000000D02*
X24000000Y-8000000D01*
X24000000Y-10025000D02*
X24863000Y-10025000D01*
D35*
%TO.N,PROT_SHDN*%
X23500000Y-13000000D02*
X22900000Y-16000000D01*
X24863000Y-11975000D02*
X23500000Y-13000000D01*
D33*
%TO.N,PROT_UV*%
X29400000Y-15000000D02*
X29400000Y-16000000D01*
X27137000Y-11325000D02*
X28200000Y-11325000D01*
%TD*%
M02*
