%TF.GenerationSoftware,KiCad,Pcbnew,9.0.9*%
%TF.CreationDate,2026-08-02T19:51:54+00:00*%
%TF.ProjectId,carrier,63617272-6965-4722-9e6b-696361645f70,rev?*%
%TF.SameCoordinates,Original*%
%TF.FileFunction,Legend,Bot*%
%TF.FilePolarity,Positive*%
%FSLAX46Y46*%
G04 Gerber Fmt 4.6, Leading zero omitted, Abs format (unit mm)*
G04 Created by KiCad (PCBNEW 9.0.9) date 2026-08-02 19:51:54*
%MOMM*%
%LPD*%
G01*
G04 APERTURE LIST*
%ADD10C,0.120000*%
G04 APERTURE END LIST*
D10*
X43809523Y-56940045D02*
X43885713Y-56901950D01*
X43885713Y-56901950D02*
X43961904Y-56825760D01*
X43961904Y-56825760D02*
X44076190Y-56711474D01*
X44076190Y-56711474D02*
X44152380Y-56673379D01*
X44152380Y-56673379D02*
X44228571Y-56673379D01*
X44190475Y-56863855D02*
X44266666Y-56825760D01*
X44266666Y-56825760D02*
X44342856Y-56749569D01*
X44342856Y-56749569D02*
X44380952Y-56597188D01*
X44380952Y-56597188D02*
X44380952Y-56330521D01*
X44380952Y-56330521D02*
X44342856Y-56178140D01*
X44342856Y-56178140D02*
X44266666Y-56101950D01*
X44266666Y-56101950D02*
X44190475Y-56063855D01*
X44190475Y-56063855D02*
X44038094Y-56063855D01*
X44038094Y-56063855D02*
X43961904Y-56101950D01*
X43961904Y-56101950D02*
X43885713Y-56178140D01*
X43885713Y-56178140D02*
X43847618Y-56330521D01*
X43847618Y-56330521D02*
X43847618Y-56597188D01*
X43847618Y-56597188D02*
X43885713Y-56749569D01*
X43885713Y-56749569D02*
X43961904Y-56825760D01*
X43961904Y-56825760D02*
X44038094Y-56863855D01*
X44038094Y-56863855D02*
X44190475Y-56863855D01*
X43504761Y-56863855D02*
X43504761Y-56063855D01*
X43504761Y-56063855D02*
X43238095Y-56635283D01*
X43238095Y-56635283D02*
X42971428Y-56063855D01*
X42971428Y-56063855D02*
X42971428Y-56863855D01*
X41523808Y-56863855D02*
X41790475Y-56482902D01*
X41980951Y-56863855D02*
X41980951Y-56063855D01*
X41980951Y-56063855D02*
X41676189Y-56063855D01*
X41676189Y-56063855D02*
X41599999Y-56101950D01*
X41599999Y-56101950D02*
X41561904Y-56140045D01*
X41561904Y-56140045D02*
X41523808Y-56216236D01*
X41523808Y-56216236D02*
X41523808Y-56330521D01*
X41523808Y-56330521D02*
X41561904Y-56406712D01*
X41561904Y-56406712D02*
X41599999Y-56444807D01*
X41599999Y-56444807D02*
X41676189Y-56482902D01*
X41676189Y-56482902D02*
X41980951Y-56482902D01*
X41028570Y-56063855D02*
X40952380Y-56063855D01*
X40952380Y-56063855D02*
X40876189Y-56101950D01*
X40876189Y-56101950D02*
X40838094Y-56140045D01*
X40838094Y-56140045D02*
X40799999Y-56216236D01*
X40799999Y-56216236D02*
X40761904Y-56368617D01*
X40761904Y-56368617D02*
X40761904Y-56559093D01*
X40761904Y-56559093D02*
X40799999Y-56711474D01*
X40799999Y-56711474D02*
X40838094Y-56787664D01*
X40838094Y-56787664D02*
X40876189Y-56825760D01*
X40876189Y-56825760D02*
X40952380Y-56863855D01*
X40952380Y-56863855D02*
X41028570Y-56863855D01*
X41028570Y-56863855D02*
X41104761Y-56825760D01*
X41104761Y-56825760D02*
X41142856Y-56787664D01*
X41142856Y-56787664D02*
X41180951Y-56711474D01*
X41180951Y-56711474D02*
X41219047Y-56559093D01*
X41219047Y-56559093D02*
X41219047Y-56368617D01*
X41219047Y-56368617D02*
X41180951Y-56216236D01*
X41180951Y-56216236D02*
X41142856Y-56140045D01*
X41142856Y-56140045D02*
X41104761Y-56101950D01*
X41104761Y-56101950D02*
X41028570Y-56063855D01*
X40419046Y-56787664D02*
X40380951Y-56825760D01*
X40380951Y-56825760D02*
X40419046Y-56863855D01*
X40419046Y-56863855D02*
X40457142Y-56825760D01*
X40457142Y-56825760D02*
X40419046Y-56787664D01*
X40419046Y-56787664D02*
X40419046Y-56863855D01*
X39619047Y-56863855D02*
X40076190Y-56863855D01*
X39847618Y-56863855D02*
X39847618Y-56063855D01*
X39847618Y-56063855D02*
X39923809Y-56178140D01*
X39923809Y-56178140D02*
X39999999Y-56254331D01*
X39999999Y-56254331D02*
X40076190Y-56292426D01*
M02*
