%TF.GenerationSoftware,KiCad,Pcbnew,9.0.9*%
%TF.CreationDate,2026-08-02T19:51:54+00:00*%
%TF.ProjectId,carrier,63617272-6965-4722-9e6b-696361645f70,rev?*%
%TF.SameCoordinates,Original*%
%TF.FileFunction,Paste,Top*%
%TF.FilePolarity,Positive*%
%FSLAX46Y46*%
G04 Gerber Fmt 4.6, Leading zero omitted, Abs format (unit mm)*
G04 Created by KiCad (PCBNEW 9.0.9) date 2026-08-02 19:51:54*
%MOMM*%
%LPD*%
G01*
G04 APERTURE LIST*
%ADD10R,1.000000X1.500000*%
%ADD11R,0.800000X0.800000*%
%ADD12R,1.400000X1.500000*%
%ADD13R,0.550000X0.800000*%
%ADD14R,1.000000X3.500000*%
%ADD15R,1.500000X3.400000*%
%ADD16R,0.800000X1.000000*%
%ADD17R,1.500000X0.700000*%
%ADD18R,1.325000X0.500000*%
%ADD19R,0.300000X1.300000*%
%ADD20R,1.800000X2.200000*%
%ADD21R,1.000000X1.600000*%
%ADD22R,0.775000X0.250000*%
%ADD23R,0.800000X1.200000*%
%ADD24R,0.950000X1.100000*%
%ADD25R,0.559000X0.406000*%
G04 APERTURE END LIST*
D10*
%TO.C,TP3*%
X8000000Y-52000000D03*
%TD*%
D11*
%TO.C,R3*%
X68100000Y-15000000D03*
X69900000Y-15000000D03*
%TD*%
%TO.C,R2*%
X55100000Y-22000000D03*
X56900000Y-22000000D03*
%TD*%
%TO.C,C6*%
X13000000Y-12100000D03*
X13000000Y-13900000D03*
%TD*%
D12*
%TO.C,SW3*%
X77300000Y-48100000D03*
X80700000Y-48100000D03*
X77300000Y-53900000D03*
X80700000Y-53900000D03*
%TD*%
D11*
%TO.C,R8*%
X27600000Y-16000000D03*
X29400000Y-16000000D03*
%TD*%
%TO.C,R1*%
X49100000Y-34000000D03*
X50900000Y-34000000D03*
%TD*%
D13*
%TO.C,U2*%
X20800000Y-28050000D03*
X20800000Y-29000000D03*
X20800000Y-29950000D03*
X23200000Y-29950000D03*
X23200000Y-28050000D03*
%TD*%
D14*
%TO.C,J1*%
X4000000Y-18000000D03*
X6000000Y-18000000D03*
D15*
X1650000Y-23750000D03*
X8350000Y-23750000D03*
%TD*%
D11*
%TO.C,C4*%
X18000000Y-32100000D03*
X18000000Y-33900000D03*
%TD*%
D16*
%TO.C,SW1*%
X77780000Y-30350000D03*
X75570000Y-30350000D03*
X77780000Y-37650000D03*
X75570000Y-37650000D03*
D17*
X78430000Y-31750000D03*
X78430000Y-34750000D03*
X78430000Y-36250000D03*
%TD*%
D10*
%TO.C,TP5*%
X47000000Y-25000000D03*
%TD*%
D11*
%TO.C,C2*%
X54000000Y-30100000D03*
X54000000Y-31900000D03*
%TD*%
D10*
%TO.C,TP2*%
X42000000Y-12000000D03*
%TD*%
D11*
%TO.C,R4*%
X69100000Y-18000000D03*
X70900000Y-18000000D03*
%TD*%
D10*
%TO.C,TP6*%
X48000000Y-31000000D03*
%TD*%
D11*
%TO.C,C1*%
X51100000Y-24000000D03*
X52900000Y-24000000D03*
%TD*%
D18*
%TO.C,U3*%
X24863000Y-10025000D03*
X24863000Y-10675000D03*
X24863000Y-11325000D03*
X24863000Y-11975000D03*
X27137000Y-11975000D03*
X27137000Y-11325000D03*
X27137000Y-10675000D03*
X27137000Y-10025000D03*
%TD*%
D14*
%TO.C,J2*%
X11000000Y-41000000D03*
X13000000Y-41000000D03*
D15*
X8650000Y-46750000D03*
X15350000Y-46750000D03*
%TD*%
D19*
%TO.C,J4*%
X30000000Y-50500000D03*
X30500000Y-50500000D03*
X31000000Y-50500000D03*
X31500000Y-50500000D03*
X32000000Y-50500000D03*
X32500000Y-50500000D03*
X33000000Y-50500000D03*
X33500000Y-50500000D03*
X34000000Y-50500000D03*
X34500000Y-50500000D03*
X35000000Y-50500000D03*
X35500000Y-50500000D03*
X36000000Y-50500000D03*
X36500000Y-50500000D03*
X37000000Y-50500000D03*
X37500000Y-50500000D03*
X38000000Y-50500000D03*
X38500000Y-50500000D03*
D20*
X28100000Y-53750000D03*
X40400000Y-53750000D03*
%TD*%
D21*
%TO.C,F1*%
X8500000Y-8000000D03*
X11500000Y-8000000D03*
%TD*%
D22*
%TO.C,U1*%
X57012000Y-27250000D03*
X57012000Y-27750000D03*
X57012000Y-28250000D03*
X57012000Y-28750000D03*
X58988000Y-28750000D03*
X58988000Y-28250000D03*
X58988000Y-27750000D03*
X58988000Y-27250000D03*
D23*
X58000000Y-28000000D03*
%TD*%
D10*
%TO.C,TP1*%
X8000000Y-40000000D03*
%TD*%
D11*
%TO.C,R5*%
X21100000Y-16000000D03*
X22900000Y-16000000D03*
%TD*%
D10*
%TO.C,TP4*%
X65000000Y-12000000D03*
%TD*%
D12*
%TO.C,SW2*%
X77300000Y-39100000D03*
X80700000Y-39100000D03*
X77300000Y-44900000D03*
X80700000Y-44900000D03*
%TD*%
D11*
%TO.C,R6*%
X25100000Y-32000000D03*
X26900000Y-32000000D03*
%TD*%
%TO.C,C3*%
X27000000Y-24100000D03*
X27000000Y-25900000D03*
%TD*%
D24*
%TO.C,C7*%
X18000000Y-14975000D03*
X18000000Y-17025000D03*
%TD*%
D19*
%TO.C,J3*%
X30000000Y-4500000D03*
X30500000Y-4500000D03*
X31000000Y-4500000D03*
X31500000Y-4500000D03*
X32000000Y-4500000D03*
X32500000Y-4500000D03*
X33000000Y-4500000D03*
X33500000Y-4500000D03*
X34000000Y-4500000D03*
X34500000Y-4500000D03*
X35000000Y-4500000D03*
X35500000Y-4500000D03*
X36000000Y-4500000D03*
X36500000Y-4500000D03*
X37000000Y-4500000D03*
X37500000Y-4500000D03*
X38000000Y-4500000D03*
X38500000Y-4500000D03*
D20*
X28100000Y-7750000D03*
X40400000Y-7750000D03*
%TD*%
D11*
%TO.C,R7*%
X67100000Y-34000000D03*
X68900000Y-34000000D03*
%TD*%
%TO.C,C5*%
X69100000Y-21000000D03*
X70900000Y-21000000D03*
%TD*%
D25*
%TO.C,Q1*%
X17263000Y-7025000D03*
X17263000Y-7675000D03*
X17263000Y-8325000D03*
X17263000Y-8975000D03*
X18737000Y-8975000D03*
X18737000Y-8325000D03*
X18737000Y-7675000D03*
X18737000Y-7025000D03*
%TD*%
M02*
