%TF.GenerationSoftware,KiCad,Pcbnew,9.0.9*%
%TF.CreationDate,2026-08-02T19:51:54+00:00*%
%TF.ProjectId,carrier,63617272-6965-4722-9e6b-696361645f70,rev?*%
%TF.SameCoordinates,Original*%
%TF.FileFunction,Copper,L2,Bot*%
%TF.FilePolarity,Positive*%
%FSLAX46Y46*%
G04 Gerber Fmt 4.6, Leading zero omitted, Abs format (unit mm)*
G04 Created by KiCad (PCBNEW 9.0.9) date 2026-08-02 19:51:54*
%MOMM*%
%LPD*%
G01*
G04 APERTURE LIST*
%TA.AperFunction,ComponentPad*%
%ADD10R,1.800000X1.800000*%
%TD*%
%TA.AperFunction,ComponentPad*%
%ADD11C,1.800000*%
%TD*%
%TA.AperFunction,ViaPad*%
%ADD12C,0.700000*%
%TD*%
%TA.AperFunction,ViaPad*%
%ADD13C,0.550000*%
%TD*%
%TA.AperFunction,ViaPad*%
%ADD14C,0.500000*%
%TD*%
%TA.AperFunction,Conductor*%
%ADD15C,0.250000*%
%TD*%
%TA.AperFunction,Conductor*%
%ADD16C,0.300000*%
%TD*%
%TA.AperFunction,Conductor*%
%ADD17C,0.400000*%
%TD*%
%TA.AperFunction,Conductor*%
%ADD18C,0.200000*%
%TD*%
%TA.AperFunction,Conductor*%
%ADD19C,0.180000*%
%TD*%
G04 APERTURE END LIST*
D10*
%TO.P,J5,1,GPIO47*%
%TO.N,BTN_A*%
X74000000Y-7000000D03*
D11*
%TO.P,J5,2,GPIO8*%
%TO.N,BTN_B*%
X74000000Y-9540000D03*
%TO.P,J5,3,GPIO5*%
%TO.N,POWER_SW*%
X74000000Y-12080000D03*
%TO.P,J5,4,VCC*%
%TO.N,USB_5V*%
X74000000Y-14620000D03*
%TO.P,J5,5,GND*%
%TO.N,GND*%
X74000000Y-17160000D03*
%TO.P,J5,6,GPIO6*%
%TO.N,USB_SENSE*%
X74000000Y-19700000D03*
%TO.P,J5,7,ALERT*%
%TO.N,ALERT*%
X74000000Y-22240000D03*
%TD*%
D12*
%TO.N,GND*%
X81500000Y-54500000D03*
X81500000Y-45500000D03*
X70900000Y-16500000D03*
X55500000Y-24000000D03*
X12000000Y-15000000D03*
X22000000Y-17000000D03*
X55500000Y-29000000D03*
X28500000Y-56200000D03*
X19500000Y-31000000D03*
X53000000Y-33500000D03*
X7500000Y-20000000D03*
X70900000Y-22500000D03*
X27000000Y-27000000D03*
X28500000Y-9500000D03*
X9500000Y-53000000D03*
X19500000Y-34500000D03*
X15000000Y-42500000D03*
X56000000Y-26400000D03*
D13*
X60200000Y-28350000D03*
D12*
X28000000Y-33000000D03*
X80200000Y-29500000D03*
%TO.N,BAT_FUSED*%
X29500000Y-14000000D03*
X21100000Y-14000000D03*
X27600000Y-14000000D03*
%TO.N,VBAT_SAFE*%
X52000000Y-19000000D03*
X20000000Y-18000000D03*
%TO.N,3V3*%
X25000000Y-16500000D03*
X28500000Y-3000000D03*
X45000000Y-20000000D03*
X25000000Y-20000000D03*
X63000000Y-34000000D03*
X54000000Y-20000000D03*
X42000000Y-13000000D03*
%TO.N,LCD_POWER_EN*%
X24000000Y-32000000D03*
X32500000Y-56000000D03*
%TO.N,SCL*%
X62000000Y-31000000D03*
X50900000Y-31000000D03*
X36000000Y-54000000D03*
X48000000Y-32000000D03*
%TO.N,SDA*%
X47000000Y-26000000D03*
X56900000Y-25000000D03*
X62000000Y-25000000D03*
X42000000Y-56500000D03*
X39500000Y-56500000D03*
X42000000Y-52000000D03*
%TO.N,BTN_A*%
X66000000Y-45000000D03*
X68000000Y-7000000D03*
%TO.N,BTN_B*%
X72000000Y-9540000D03*
X75000000Y-54000000D03*
%TO.N,POWER_SW*%
X80500000Y-34750000D03*
%TO.N,FET_COMMON*%
X15800000Y-8325000D03*
X15800000Y-7025000D03*
%TO.N,PROT_GATE*%
X14500000Y-7675000D03*
X22000000Y-8000000D03*
X14500000Y-8975000D03*
D14*
%TO.N,PROT_UV*%
X28200000Y-11325000D03*
X29400000Y-15000000D03*
%TD*%
D15*
%TO.N,GND*%
X70900000Y-16500000D02*
X70900000Y-22500000D01*
D16*
%TO.N,BAT_FUSED*%
X29500000Y-14000000D02*
X27600000Y-14000000D01*
X27600000Y-14000000D02*
X21100000Y-14000000D01*
D17*
%TO.N,VBAT_SAFE*%
X20000000Y-18000000D02*
X23000000Y-19000000D01*
X23000000Y-19000000D02*
X52000000Y-19000000D01*
D15*
%TO.N,3V3*%
X63000000Y-20000000D02*
X63000000Y-34000000D01*
D16*
X40000000Y-16500000D02*
X25000000Y-16500000D01*
X40000000Y-3000000D02*
X40000000Y-16500000D01*
X25000000Y-20000000D02*
X63000000Y-20000000D01*
X28500000Y-3000000D02*
X40000000Y-3000000D01*
D18*
X42000000Y-16500000D02*
X42000000Y-13000000D01*
X40000000Y-16500000D02*
X42000000Y-16500000D01*
%TO.N,LCD_POWER_EN*%
X32500000Y-51000000D02*
X24000000Y-51000000D01*
X32500000Y-56000000D02*
X32500000Y-51000000D01*
X24000000Y-51000000D02*
X24000000Y-32000000D01*
%TO.N,SCL*%
X50900000Y-31000000D02*
X62000000Y-31000000D01*
X36000000Y-54000000D02*
X44000000Y-54000000D01*
X44000000Y-31000000D02*
X48000000Y-31000000D01*
X48000000Y-31000000D02*
X48000000Y-32000000D01*
X44000000Y-54000000D02*
X44000000Y-31000000D01*
X48000000Y-31000000D02*
X50900000Y-31000000D01*
%TO.N,SDA*%
X39500000Y-56500000D02*
X42000000Y-56500000D01*
X47000000Y-25000000D02*
X47000000Y-26000000D01*
X47000000Y-25000000D02*
X56900000Y-25000000D01*
X42000000Y-25000000D02*
X47000000Y-25000000D01*
X42000000Y-52000000D02*
X42000000Y-25000000D01*
X56900000Y-25000000D02*
X62000000Y-25000000D01*
D15*
%TO.N,BTN_A*%
X66000000Y-9000000D02*
X66000000Y-45000000D01*
X68000000Y-7000000D02*
X66000000Y-9000000D01*
%TO.N,BTN_B*%
X72000000Y-9540000D02*
X72000000Y-54000000D01*
X72000000Y-54000000D02*
X75000000Y-54000000D01*
%TO.N,POWER_SW*%
X74000000Y-12080000D02*
X81000000Y-12080000D01*
X81000000Y-12080000D02*
X81000000Y-34750000D01*
X81000000Y-34750000D02*
X80500000Y-34750000D01*
D19*
%TO.N,FET_COMMON*%
X15800000Y-7025000D02*
X15800000Y-8325000D01*
D18*
%TO.N,PROT_GATE*%
X22000000Y-13000000D02*
X22000000Y-8000000D01*
X21500000Y-13000000D02*
X22000000Y-13000000D01*
D19*
X14500000Y-7675000D02*
X14500000Y-8975000D01*
D18*
X14500000Y-8975000D02*
X14500000Y-12000000D01*
X14500000Y-12000000D02*
X21500000Y-13000000D01*
D19*
%TO.N,PROT_UV*%
X30500000Y-15000000D02*
X29400000Y-15000000D01*
X28200000Y-11325000D02*
X30500000Y-13000000D01*
X30500000Y-13000000D02*
X30500000Y-15000000D01*
%TD*%
%TA.AperFunction,Conductor*%
%TO.N,GND*%
G36*
X83359191Y-618907D02*
G01*
X83395155Y-668407D01*
X83400000Y-699000D01*
X83400000Y-57301000D01*
X83381093Y-57359191D01*
X83331593Y-57395155D01*
X83301000Y-57400000D01*
X699000Y-57400000D01*
X640809Y-57381093D01*
X604845Y-57331593D01*
X600000Y-57301000D01*
X600000Y-54877969D01*
X1449500Y-54877969D01*
X1449500Y-55122030D01*
X1487677Y-55363071D01*
X1563096Y-55595185D01*
X1673892Y-55812637D01*
X1737002Y-55899500D01*
X1817345Y-56010083D01*
X1989917Y-56182655D01*
X2107682Y-56268216D01*
X2187362Y-56326107D01*
X2270984Y-56368714D01*
X2404815Y-56436904D01*
X2636924Y-56512321D01*
X2636925Y-56512321D01*
X2636928Y-56512322D01*
X2877970Y-56550500D01*
X2877973Y-56550500D01*
X3122030Y-56550500D01*
X3363071Y-56512322D01*
X3363072Y-56512321D01*
X3363076Y-56512321D01*
X3595185Y-56436904D01*
X3812639Y-56326106D01*
X4010083Y-56182655D01*
X4182655Y-56010083D01*
X4326106Y-55812639D01*
X4436904Y-55595185D01*
X4512321Y-55363076D01*
X4550500Y-55122027D01*
X4550500Y-54877973D01*
X4550500Y-54877969D01*
X4512322Y-54636928D01*
X4461502Y-54480520D01*
X4436904Y-54404815D01*
X4348118Y-54230562D01*
X4326107Y-54187362D01*
X4225897Y-54049435D01*
X4182655Y-53989917D01*
X4010083Y-53817345D01*
X3920623Y-53752348D01*
X3812637Y-53673892D01*
X3595185Y-53563096D01*
X3363071Y-53487677D01*
X3122030Y-53449500D01*
X3122027Y-53449500D01*
X2877973Y-53449500D01*
X2877970Y-53449500D01*
X2636928Y-53487677D01*
X2404814Y-53563096D01*
X2187362Y-53673892D01*
X1989918Y-53817344D01*
X1817344Y-53989918D01*
X1673892Y-54187362D01*
X1563096Y-54404814D01*
X1487677Y-54636928D01*
X1449500Y-54877969D01*
X600000Y-54877969D01*
X600000Y-31920943D01*
X23399500Y-31920943D01*
X23399500Y-32079057D01*
X23440423Y-32231784D01*
X23519480Y-32368716D01*
X23620505Y-32469741D01*
X23648281Y-32524256D01*
X23649500Y-32539743D01*
X23649500Y-51046144D01*
X23655623Y-51068995D01*
X23673387Y-51135290D01*
X23713247Y-51204329D01*
X23719531Y-51215212D01*
X23784788Y-51280469D01*
X23864712Y-51326614D01*
X23953856Y-51350500D01*
X24046144Y-51350500D01*
X32050500Y-51350500D01*
X32108691Y-51369407D01*
X32144655Y-51418907D01*
X32149500Y-51449500D01*
X32149500Y-55460257D01*
X32130593Y-55518448D01*
X32120509Y-55530254D01*
X32019480Y-55631284D01*
X31940423Y-55768216D01*
X31899500Y-55920943D01*
X31899500Y-56079057D01*
X31940423Y-56231784D01*
X32019480Y-56368716D01*
X32131284Y-56480520D01*
X32268216Y-56559577D01*
X32420943Y-56600500D01*
X32420945Y-56600500D01*
X32579055Y-56600500D01*
X32579057Y-56600500D01*
X32731784Y-56559577D01*
X32868716Y-56480520D01*
X32928293Y-56420943D01*
X38899500Y-56420943D01*
X38899500Y-56579057D01*
X38940423Y-56731784D01*
X39019480Y-56868716D01*
X39131284Y-56980520D01*
X39268216Y-57059577D01*
X39420943Y-57100500D01*
X39420945Y-57100500D01*
X39579055Y-57100500D01*
X39579057Y-57100500D01*
X39731784Y-57059577D01*
X39868716Y-56980520D01*
X39969741Y-56879494D01*
X40024256Y-56851719D01*
X40039743Y-56850500D01*
X41460257Y-56850500D01*
X41518448Y-56869407D01*
X41530254Y-56879490D01*
X41631284Y-56980520D01*
X41768216Y-57059577D01*
X41920943Y-57100500D01*
X41920945Y-57100500D01*
X42079055Y-57100500D01*
X42079057Y-57100500D01*
X42231784Y-57059577D01*
X42368716Y-56980520D01*
X42480520Y-56868716D01*
X42559577Y-56731784D01*
X42600500Y-56579057D01*
X42600500Y-56420943D01*
X42559577Y-56268216D01*
X42480520Y-56131284D01*
X42368716Y-56019480D01*
X42231784Y-55940423D01*
X42079057Y-55899500D01*
X41920943Y-55899500D01*
X41768216Y-55940423D01*
X41631284Y-56019480D01*
X41530258Y-56120505D01*
X41475744Y-56148281D01*
X41460257Y-56149500D01*
X40039743Y-56149500D01*
X39981552Y-56130593D01*
X39969745Y-56120509D01*
X39868716Y-56019480D01*
X39731784Y-55940423D01*
X39579057Y-55899500D01*
X39420943Y-55899500D01*
X39268216Y-55940423D01*
X39131284Y-56019480D01*
X39019480Y-56131284D01*
X38940423Y-56268216D01*
X38899500Y-56420943D01*
X32928293Y-56420943D01*
X32980520Y-56368716D01*
X33059577Y-56231784D01*
X33100500Y-56079057D01*
X33100500Y-55920943D01*
X33059577Y-55768216D01*
X32980520Y-55631284D01*
X32879494Y-55530258D01*
X32851719Y-55475744D01*
X32850500Y-55460257D01*
X32850500Y-54877969D01*
X68449500Y-54877969D01*
X68449500Y-55122030D01*
X68487677Y-55363071D01*
X68563096Y-55595185D01*
X68673892Y-55812637D01*
X68737002Y-55899500D01*
X68817345Y-56010083D01*
X68989917Y-56182655D01*
X69107682Y-56268216D01*
X69187362Y-56326107D01*
X69270984Y-56368714D01*
X69404815Y-56436904D01*
X69636924Y-56512321D01*
X69636925Y-56512321D01*
X69636928Y-56512322D01*
X69877970Y-56550500D01*
X69877973Y-56550500D01*
X70122030Y-56550500D01*
X70363071Y-56512322D01*
X70363072Y-56512321D01*
X70363076Y-56512321D01*
X70595185Y-56436904D01*
X70812639Y-56326106D01*
X71010083Y-56182655D01*
X71182655Y-56010083D01*
X71326106Y-55812639D01*
X71436904Y-55595185D01*
X71512321Y-55363076D01*
X71550500Y-55122027D01*
X71550500Y-54877973D01*
X71550500Y-54877969D01*
X71512322Y-54636928D01*
X71461502Y-54480520D01*
X71436904Y-54404815D01*
X71348118Y-54230562D01*
X71326107Y-54187362D01*
X71225897Y-54049435D01*
X71182655Y-53989917D01*
X71010083Y-53817345D01*
X70920623Y-53752348D01*
X70812637Y-53673892D01*
X70595185Y-53563096D01*
X70363071Y-53487677D01*
X70122030Y-53449500D01*
X70122027Y-53449500D01*
X69877973Y-53449500D01*
X69877970Y-53449500D01*
X69636928Y-53487677D01*
X69404814Y-53563096D01*
X69187362Y-53673892D01*
X68989918Y-53817344D01*
X68817344Y-53989918D01*
X68673892Y-54187362D01*
X68563096Y-54404814D01*
X68487677Y-54636928D01*
X68449500Y-54877969D01*
X32850500Y-54877969D01*
X32850500Y-50953857D01*
X32850500Y-50953856D01*
X32826614Y-50864712D01*
X32780469Y-50784788D01*
X32715212Y-50719531D01*
X32635288Y-50673386D01*
X32546144Y-50649500D01*
X32546142Y-50649500D01*
X24449500Y-50649500D01*
X24391309Y-50630593D01*
X24355345Y-50581093D01*
X24350500Y-50550500D01*
X24350500Y-32539743D01*
X24369407Y-32481552D01*
X24379490Y-32469745D01*
X24480520Y-32368716D01*
X24559577Y-32231784D01*
X24600500Y-32079057D01*
X24600500Y-31920943D01*
X24559577Y-31768216D01*
X24480520Y-31631284D01*
X24368716Y-31519480D01*
X24231784Y-31440423D01*
X24079057Y-31399500D01*
X23920943Y-31399500D01*
X23768216Y-31440423D01*
X23631284Y-31519480D01*
X23519480Y-31631284D01*
X23440423Y-31768216D01*
X23399500Y-31920943D01*
X600000Y-31920943D01*
X600000Y-17920943D01*
X19399500Y-17920943D01*
X19399500Y-18079057D01*
X19440423Y-18231784D01*
X19519480Y-18368716D01*
X19631284Y-18480520D01*
X19768216Y-18559577D01*
X19920943Y-18600500D01*
X19920945Y-18600500D01*
X20079055Y-18600500D01*
X20079057Y-18600500D01*
X20215452Y-18563953D01*
X20272375Y-18565659D01*
X22814261Y-19412955D01*
X22826114Y-19419799D01*
X22870351Y-19431652D01*
X22913805Y-19446137D01*
X22917461Y-19446356D01*
X22937146Y-19449550D01*
X22940691Y-19450500D01*
X22940693Y-19450500D01*
X22986495Y-19450500D01*
X23032211Y-19453244D01*
X23045620Y-19450500D01*
X24461257Y-19450500D01*
X24519448Y-19469407D01*
X24555412Y-19518907D01*
X24555412Y-19580093D01*
X24531262Y-19619501D01*
X24519480Y-19631284D01*
X24440423Y-19768216D01*
X24399500Y-19920943D01*
X24399500Y-20079057D01*
X24440423Y-20231784D01*
X24519480Y-20368716D01*
X24631284Y-20480520D01*
X24768216Y-20559577D01*
X24920943Y-20600500D01*
X24920945Y-20600500D01*
X25079055Y-20600500D01*
X25079057Y-20600500D01*
X25231784Y-20559577D01*
X25368716Y-20480520D01*
X25399735Y-20449501D01*
X25419741Y-20429496D01*
X25474258Y-20401719D01*
X25489744Y-20400500D01*
X44510256Y-20400500D01*
X44568447Y-20419407D01*
X44580259Y-20429496D01*
X44619671Y-20468907D01*
X44631284Y-20480520D01*
X44768216Y-20559577D01*
X44920943Y-20600500D01*
X44920945Y-20600500D01*
X45079055Y-20600500D01*
X45079057Y-20600500D01*
X45231784Y-20559577D01*
X45368716Y-20480520D01*
X45399735Y-20449501D01*
X45419741Y-20429496D01*
X45474258Y-20401719D01*
X45489744Y-20400500D01*
X53510256Y-20400500D01*
X53568447Y-20419407D01*
X53580259Y-20429496D01*
X53619671Y-20468907D01*
X53631284Y-20480520D01*
X53768216Y-20559577D01*
X53920943Y-20600500D01*
X53920945Y-20600500D01*
X54079055Y-20600500D01*
X54079057Y-20600500D01*
X54231784Y-20559577D01*
X54368716Y-20480520D01*
X54399735Y-20449501D01*
X54419741Y-20429496D01*
X54474258Y-20401719D01*
X54489744Y-20400500D01*
X62525500Y-20400500D01*
X62583691Y-20419407D01*
X62619655Y-20468907D01*
X62624500Y-20499500D01*
X62624500Y-24536257D01*
X62605593Y-24594448D01*
X62556093Y-24630412D01*
X62494907Y-24630412D01*
X62455498Y-24606262D01*
X62368716Y-24519480D01*
X62231784Y-24440423D01*
X62079057Y-24399500D01*
X61920943Y-24399500D01*
X61768216Y-24440423D01*
X61631284Y-24519480D01*
X61530258Y-24620505D01*
X61475744Y-24648281D01*
X61460257Y-24649500D01*
X57439743Y-24649500D01*
X57381552Y-24630593D01*
X57369745Y-24620509D01*
X57268716Y-24519480D01*
X57131784Y-24440423D01*
X56979057Y-24399500D01*
X56820943Y-24399500D01*
X56668216Y-24440423D01*
X56531284Y-24519480D01*
X56430258Y-24620505D01*
X56375744Y-24648281D01*
X56360257Y-24649500D01*
X47046144Y-24649500D01*
X42046144Y-24649500D01*
X41953856Y-24649500D01*
X41864712Y-24673386D01*
X41864711Y-24673386D01*
X41864709Y-24673387D01*
X41784790Y-24719529D01*
X41719529Y-24784790D01*
X41673387Y-24864709D01*
X41649500Y-24953857D01*
X41649500Y-51460257D01*
X41630593Y-51518448D01*
X41620509Y-51530254D01*
X41519480Y-51631284D01*
X41440423Y-51768216D01*
X41399500Y-51920943D01*
X41399500Y-52079057D01*
X41440423Y-52231784D01*
X41519480Y-52368716D01*
X41631284Y-52480520D01*
X41768216Y-52559577D01*
X41920943Y-52600500D01*
X41920945Y-52600500D01*
X42079055Y-52600500D01*
X42079057Y-52600500D01*
X42231784Y-52559577D01*
X42368716Y-52480520D01*
X42480520Y-52368716D01*
X42559577Y-52231784D01*
X42600500Y-52079057D01*
X42600500Y-51920943D01*
X42559577Y-51768216D01*
X42480520Y-51631284D01*
X42379494Y-51530258D01*
X42351719Y-51475744D01*
X42350500Y-51460257D01*
X42350500Y-25449500D01*
X42369407Y-25391309D01*
X42418907Y-25355345D01*
X42449500Y-25350500D01*
X46550500Y-25350500D01*
X46565412Y-25355345D01*
X46581093Y-25355345D01*
X46593778Y-25364561D01*
X46608691Y-25369407D01*
X46617907Y-25382092D01*
X46630593Y-25391309D01*
X46635438Y-25406221D01*
X46644655Y-25418907D01*
X46649500Y-25449500D01*
X46649500Y-25460257D01*
X46630593Y-25518448D01*
X46620509Y-25530254D01*
X46519480Y-25631284D01*
X46440423Y-25768216D01*
X46399500Y-25920943D01*
X46399500Y-26079057D01*
X46440423Y-26231784D01*
X46519480Y-26368716D01*
X46631284Y-26480520D01*
X46768216Y-26559577D01*
X46920943Y-26600500D01*
X46920945Y-26600500D01*
X47079055Y-26600500D01*
X47079057Y-26600500D01*
X47231784Y-26559577D01*
X47368716Y-26480520D01*
X47480520Y-26368716D01*
X47559577Y-26231784D01*
X47600500Y-26079057D01*
X47600500Y-25920943D01*
X47559577Y-25768216D01*
X47480520Y-25631284D01*
X47379494Y-25530258D01*
X47375869Y-25523143D01*
X47369407Y-25518448D01*
X47362243Y-25496399D01*
X47351719Y-25475744D01*
X47350500Y-25460257D01*
X47350500Y-25449500D01*
X47369407Y-25391309D01*
X47418907Y-25355345D01*
X47449500Y-25350500D01*
X56360257Y-25350500D01*
X56418448Y-25369407D01*
X56430254Y-25379490D01*
X56531284Y-25480520D01*
X56668216Y-25559577D01*
X56820943Y-25600500D01*
X56820945Y-25600500D01*
X56979055Y-25600500D01*
X56979057Y-25600500D01*
X57131784Y-25559577D01*
X57268716Y-25480520D01*
X57369741Y-25379494D01*
X57424256Y-25351719D01*
X57439743Y-25350500D01*
X61460257Y-25350500D01*
X61518448Y-25369407D01*
X61530254Y-25379490D01*
X61631284Y-25480520D01*
X61768216Y-25559577D01*
X61920943Y-25600500D01*
X61920945Y-25600500D01*
X62079055Y-25600500D01*
X62079057Y-25600500D01*
X62231784Y-25559577D01*
X62368716Y-25480520D01*
X62455498Y-25393737D01*
X62510013Y-25365962D01*
X62570445Y-25375533D01*
X62613710Y-25418798D01*
X62624500Y-25463743D01*
X62624500Y-30536257D01*
X62605593Y-30594448D01*
X62556093Y-30630412D01*
X62494907Y-30630412D01*
X62455498Y-30606262D01*
X62368716Y-30519480D01*
X62231784Y-30440423D01*
X62079057Y-30399500D01*
X61920943Y-30399500D01*
X61768216Y-30440423D01*
X61631284Y-30519480D01*
X61530258Y-30620505D01*
X61475744Y-30648281D01*
X61460257Y-30649500D01*
X51439743Y-30649500D01*
X51381552Y-30630593D01*
X51369745Y-30620509D01*
X51268716Y-30519480D01*
X51131784Y-30440423D01*
X50979057Y-30399500D01*
X50820943Y-30399500D01*
X50668216Y-30440423D01*
X50531284Y-30519480D01*
X50430258Y-30620505D01*
X50375744Y-30648281D01*
X50360257Y-30649500D01*
X48046144Y-30649500D01*
X44046144Y-30649500D01*
X43953856Y-30649500D01*
X43864712Y-30673386D01*
X43864711Y-30673386D01*
X43864709Y-30673387D01*
X43784790Y-30719529D01*
X43719529Y-30784790D01*
X43673387Y-30864709D01*
X43649500Y-30953857D01*
X43649500Y-53550500D01*
X43630593Y-53608691D01*
X43581093Y-53644655D01*
X43550500Y-53649500D01*
X36539743Y-53649500D01*
X36481552Y-53630593D01*
X36469745Y-53620509D01*
X36368716Y-53519480D01*
X36231784Y-53440423D01*
X36079057Y-53399500D01*
X35920943Y-53399500D01*
X35768216Y-53440423D01*
X35631284Y-53519480D01*
X35519480Y-53631284D01*
X35440423Y-53768216D01*
X35399500Y-53920943D01*
X35399500Y-54079057D01*
X35440423Y-54231784D01*
X35519480Y-54368716D01*
X35631284Y-54480520D01*
X35768216Y-54559577D01*
X35920943Y-54600500D01*
X35920945Y-54600500D01*
X36079055Y-54600500D01*
X36079057Y-54600500D01*
X36231784Y-54559577D01*
X36368716Y-54480520D01*
X36469741Y-54379494D01*
X36524256Y-54351719D01*
X36539743Y-54350500D01*
X44046142Y-54350500D01*
X44046144Y-54350500D01*
X44135288Y-54326614D01*
X44215212Y-54280469D01*
X44280469Y-54215212D01*
X44326614Y-54135288D01*
X44350500Y-54046144D01*
X44350500Y-44920943D01*
X65399500Y-44920943D01*
X65399500Y-45079057D01*
X65440423Y-45231784D01*
X65519480Y-45368716D01*
X65631284Y-45480520D01*
X65768216Y-45559577D01*
X65920943Y-45600500D01*
X65920945Y-45600500D01*
X66079055Y-45600500D01*
X66079057Y-45600500D01*
X66231784Y-45559577D01*
X66368716Y-45480520D01*
X66480520Y-45368716D01*
X66559577Y-45231784D01*
X66600500Y-45079057D01*
X66600500Y-44920943D01*
X66559577Y-44768216D01*
X66480520Y-44631284D01*
X66480517Y-44631281D01*
X66404496Y-44555259D01*
X66376719Y-44500742D01*
X66375500Y-44485256D01*
X66375500Y-9460943D01*
X71399500Y-9460943D01*
X71399500Y-9619057D01*
X71440423Y-9771784D01*
X71519480Y-9908716D01*
X71595505Y-9984741D01*
X71623281Y-10039256D01*
X71624500Y-10054743D01*
X71624500Y-53950565D01*
X71624500Y-54049435D01*
X71647067Y-54133657D01*
X71650091Y-54144942D01*
X71699523Y-54230559D01*
X71699525Y-54230562D01*
X71769438Y-54300475D01*
X71769440Y-54300476D01*
X71855058Y-54349908D01*
X71855056Y-54349908D01*
X71855060Y-54349909D01*
X71855062Y-54349910D01*
X71950565Y-54375500D01*
X74485256Y-54375500D01*
X74543447Y-54394407D01*
X74555259Y-54404496D01*
X74631281Y-54480517D01*
X74631284Y-54480520D01*
X74768216Y-54559577D01*
X74920943Y-54600500D01*
X74920945Y-54600500D01*
X75079055Y-54600500D01*
X75079057Y-54600500D01*
X75231784Y-54559577D01*
X75368716Y-54480520D01*
X75480520Y-54368716D01*
X75559577Y-54231784D01*
X75600500Y-54079057D01*
X75600500Y-53920943D01*
X75559577Y-53768216D01*
X75480520Y-53631284D01*
X75368716Y-53519480D01*
X75231784Y-53440423D01*
X75079057Y-53399500D01*
X74920943Y-53399500D01*
X74768216Y-53440423D01*
X74686366Y-53487679D01*
X74631281Y-53519482D01*
X74555259Y-53595504D01*
X74500742Y-53623281D01*
X74485256Y-53624500D01*
X72474500Y-53624500D01*
X72416309Y-53605593D01*
X72380345Y-53556093D01*
X72375500Y-53525500D01*
X72375500Y-50931004D01*
X76799500Y-50931004D01*
X76799500Y-51068995D01*
X76826420Y-51204327D01*
X76826420Y-51204329D01*
X76879222Y-51331806D01*
X76879228Y-51331817D01*
X76955885Y-51446541D01*
X77053458Y-51544114D01*
X77168182Y-51620771D01*
X77168193Y-51620777D01*
X77193560Y-51631284D01*
X77295672Y-51673580D01*
X77431007Y-51700500D01*
X77431008Y-51700500D01*
X77568992Y-51700500D01*
X77568993Y-51700500D01*
X77704328Y-51673580D01*
X77831811Y-51620775D01*
X77946542Y-51544114D01*
X78044114Y-51446542D01*
X78120775Y-51331811D01*
X78173580Y-51204328D01*
X78200500Y-51068993D01*
X78200500Y-50931007D01*
X78200499Y-50931004D01*
X79799500Y-50931004D01*
X79799500Y-51068995D01*
X79826420Y-51204327D01*
X79826420Y-51204329D01*
X79879222Y-51331806D01*
X79879228Y-51331817D01*
X79955885Y-51446541D01*
X80053458Y-51544114D01*
X80168182Y-51620771D01*
X80168193Y-51620777D01*
X80193560Y-51631284D01*
X80295672Y-51673580D01*
X80431007Y-51700500D01*
X80431008Y-51700500D01*
X80568992Y-51700500D01*
X80568993Y-51700500D01*
X80704328Y-51673580D01*
X80831811Y-51620775D01*
X80946542Y-51544114D01*
X81044114Y-51446542D01*
X81120775Y-51331811D01*
X81173580Y-51204328D01*
X81200500Y-51068993D01*
X81200500Y-50931007D01*
X81173580Y-50795672D01*
X81155978Y-50753177D01*
X81120777Y-50668193D01*
X81120771Y-50668182D01*
X81044114Y-50553458D01*
X80946541Y-50455885D01*
X80831817Y-50379228D01*
X80831806Y-50379222D01*
X80704328Y-50326420D01*
X80568995Y-50299500D01*
X80568993Y-50299500D01*
X80431007Y-50299500D01*
X80431004Y-50299500D01*
X80295672Y-50326420D01*
X80295670Y-50326420D01*
X80168193Y-50379222D01*
X80168182Y-50379228D01*
X80053458Y-50455885D01*
X79955885Y-50553458D01*
X79879228Y-50668182D01*
X79879222Y-50668193D01*
X79826420Y-50795670D01*
X79826420Y-50795672D01*
X79799500Y-50931004D01*
X78200499Y-50931004D01*
X78173580Y-50795672D01*
X78155978Y-50753177D01*
X78120777Y-50668193D01*
X78120771Y-50668182D01*
X78044114Y-50553458D01*
X77946541Y-50455885D01*
X77831817Y-50379228D01*
X77831806Y-50379222D01*
X77704328Y-50326420D01*
X77568995Y-50299500D01*
X77568993Y-50299500D01*
X77431007Y-50299500D01*
X77431004Y-50299500D01*
X77295672Y-50326420D01*
X77295670Y-50326420D01*
X77168193Y-50379222D01*
X77168182Y-50379228D01*
X77053458Y-50455885D01*
X76955885Y-50553458D01*
X76879228Y-50668182D01*
X76879222Y-50668193D01*
X76826420Y-50795670D01*
X76826420Y-50795672D01*
X76799500Y-50931004D01*
X72375500Y-50931004D01*
X72375500Y-41931004D01*
X76799500Y-41931004D01*
X76799500Y-42068995D01*
X76826420Y-42204327D01*
X76826420Y-42204329D01*
X76879222Y-42331806D01*
X76879228Y-42331817D01*
X76955885Y-42446541D01*
X77053458Y-42544114D01*
X77168182Y-42620771D01*
X77168193Y-42620777D01*
X77215283Y-42640282D01*
X77295672Y-42673580D01*
X77431007Y-42700500D01*
X77431008Y-42700500D01*
X77568992Y-42700500D01*
X77568993Y-42700500D01*
X77704328Y-42673580D01*
X77831811Y-42620775D01*
X77946542Y-42544114D01*
X78044114Y-42446542D01*
X78120775Y-42331811D01*
X78173580Y-42204328D01*
X78200500Y-42068993D01*
X78200500Y-41931007D01*
X78200499Y-41931004D01*
X79799500Y-41931004D01*
X79799500Y-42068995D01*
X79826420Y-42204327D01*
X79826420Y-42204329D01*
X79879222Y-42331806D01*
X79879228Y-42331817D01*
X79955885Y-42446541D01*
X80053458Y-42544114D01*
X80168182Y-42620771D01*
X80168193Y-42620777D01*
X80215283Y-42640282D01*
X80295672Y-42673580D01*
X80431007Y-42700500D01*
X80431008Y-42700500D01*
X80568992Y-42700500D01*
X80568993Y-42700500D01*
X80704328Y-42673580D01*
X80831811Y-42620775D01*
X80946542Y-42544114D01*
X81044114Y-42446542D01*
X81120775Y-42331811D01*
X81173580Y-42204328D01*
X81200500Y-42068993D01*
X81200500Y-41931007D01*
X81173580Y-41795672D01*
X81120775Y-41668189D01*
X81120774Y-41668187D01*
X81120771Y-41668182D01*
X81044114Y-41553458D01*
X80946541Y-41455885D01*
X80831817Y-41379228D01*
X80831806Y-41379222D01*
X80704328Y-41326420D01*
X80568995Y-41299500D01*
X80568993Y-41299500D01*
X80431007Y-41299500D01*
X80431004Y-41299500D01*
X80295672Y-41326420D01*
X80295670Y-41326420D01*
X80168193Y-41379222D01*
X80168182Y-41379228D01*
X80053458Y-41455885D01*
X79955885Y-41553458D01*
X79879228Y-41668182D01*
X79879222Y-41668193D01*
X79826420Y-41795670D01*
X79826420Y-41795672D01*
X79799500Y-41931004D01*
X78200499Y-41931004D01*
X78173580Y-41795672D01*
X78120775Y-41668189D01*
X78120774Y-41668187D01*
X78120771Y-41668182D01*
X78044114Y-41553458D01*
X77946541Y-41455885D01*
X77831817Y-41379228D01*
X77831806Y-41379222D01*
X77704328Y-41326420D01*
X77568995Y-41299500D01*
X77568993Y-41299500D01*
X77431007Y-41299500D01*
X77431004Y-41299500D01*
X77295672Y-41326420D01*
X77295670Y-41326420D01*
X77168193Y-41379222D01*
X77168182Y-41379228D01*
X77053458Y-41455885D01*
X76955885Y-41553458D01*
X76879228Y-41668182D01*
X76879222Y-41668193D01*
X76826420Y-41795670D01*
X76826420Y-41795672D01*
X76799500Y-41931004D01*
X72375500Y-41931004D01*
X72375500Y-35431004D01*
X75969500Y-35431004D01*
X75969500Y-35568995D01*
X75996420Y-35704327D01*
X75996420Y-35704329D01*
X76049222Y-35831806D01*
X76049228Y-35831817D01*
X76125885Y-35946541D01*
X76223458Y-36044114D01*
X76338182Y-36120771D01*
X76338193Y-36120777D01*
X76385283Y-36140282D01*
X76465672Y-36173580D01*
X76601007Y-36200500D01*
X76601008Y-36200500D01*
X76738992Y-36200500D01*
X76738993Y-36200500D01*
X76874328Y-36173580D01*
X77001811Y-36120775D01*
X77116542Y-36044114D01*
X77214114Y-35946542D01*
X77290775Y-35831811D01*
X77343580Y-35704328D01*
X77370500Y-35568993D01*
X77370500Y-35431007D01*
X77343580Y-35295672D01*
X77290775Y-35168189D01*
X77290774Y-35168187D01*
X77290771Y-35168182D01*
X77214114Y-35053458D01*
X77116541Y-34955885D01*
X77001817Y-34879228D01*
X77001806Y-34879222D01*
X76874328Y-34826420D01*
X76738995Y-34799500D01*
X76738993Y-34799500D01*
X76601007Y-34799500D01*
X76601004Y-34799500D01*
X76465672Y-34826420D01*
X76465670Y-34826420D01*
X76338193Y-34879222D01*
X76338182Y-34879228D01*
X76223458Y-34955885D01*
X76125885Y-35053458D01*
X76049228Y-35168182D01*
X76049222Y-35168193D01*
X75996420Y-35295670D01*
X75996420Y-35295672D01*
X75969500Y-35431004D01*
X72375500Y-35431004D01*
X72375500Y-32431004D01*
X75969500Y-32431004D01*
X75969500Y-32568995D01*
X75996420Y-32704327D01*
X75996420Y-32704329D01*
X76049222Y-32831806D01*
X76049228Y-32831817D01*
X76125885Y-32946541D01*
X76223458Y-33044114D01*
X76338182Y-33120771D01*
X76338193Y-33120777D01*
X76385283Y-33140282D01*
X76465672Y-33173580D01*
X76601007Y-33200500D01*
X76601008Y-33200500D01*
X76738992Y-33200500D01*
X76738993Y-33200500D01*
X76874328Y-33173580D01*
X77001811Y-33120775D01*
X77116542Y-33044114D01*
X77214114Y-32946542D01*
X77290775Y-32831811D01*
X77343580Y-32704328D01*
X77370500Y-32568993D01*
X77370500Y-32431007D01*
X77343580Y-32295672D01*
X77290775Y-32168189D01*
X77290774Y-32168187D01*
X77290771Y-32168182D01*
X77214114Y-32053458D01*
X77116541Y-31955885D01*
X77001817Y-31879228D01*
X77001806Y-31879222D01*
X76874328Y-31826420D01*
X76738995Y-31799500D01*
X76738993Y-31799500D01*
X76601007Y-31799500D01*
X76601004Y-31799500D01*
X76465672Y-31826420D01*
X76465670Y-31826420D01*
X76338193Y-31879222D01*
X76338182Y-31879228D01*
X76223458Y-31955885D01*
X76125885Y-32053458D01*
X76049228Y-32168182D01*
X76049222Y-32168193D01*
X75996420Y-32295670D01*
X75996420Y-32295672D01*
X75969500Y-32431004D01*
X72375500Y-32431004D01*
X72375500Y-22149450D01*
X72849500Y-22149450D01*
X72849500Y-22330549D01*
X72877828Y-22509406D01*
X72877829Y-22509409D01*
X72933789Y-22681639D01*
X73016004Y-22842994D01*
X73122447Y-22989501D01*
X73250499Y-23117553D01*
X73397006Y-23223996D01*
X73558361Y-23306211D01*
X73730591Y-23362171D01*
X73802136Y-23373502D01*
X73909451Y-23390500D01*
X73909454Y-23390500D01*
X74090549Y-23390500D01*
X74179977Y-23376335D01*
X74269409Y-23362171D01*
X74441639Y-23306211D01*
X74602994Y-23223996D01*
X74749501Y-23117553D01*
X74877553Y-22989501D01*
X74983996Y-22842994D01*
X75066211Y-22681639D01*
X75122171Y-22509409D01*
X75150500Y-22330546D01*
X75150500Y-22149454D01*
X75150500Y-22149450D01*
X75122171Y-21970593D01*
X75122171Y-21970591D01*
X75066211Y-21798361D01*
X74983996Y-21637006D01*
X74877553Y-21490499D01*
X74749501Y-21362447D01*
X74602994Y-21256004D01*
X74602993Y-21256003D01*
X74602991Y-21256002D01*
X74441637Y-21173788D01*
X74269406Y-21117828D01*
X74090549Y-21089500D01*
X74090546Y-21089500D01*
X73909454Y-21089500D01*
X73909451Y-21089500D01*
X73730593Y-21117828D01*
X73558362Y-21173788D01*
X73397008Y-21256002D01*
X73323752Y-21309225D01*
X73250499Y-21362447D01*
X73122447Y-21490499D01*
X73069225Y-21563752D01*
X73016002Y-21637008D01*
X72933788Y-21798362D01*
X72877828Y-21970593D01*
X72849500Y-22149450D01*
X72375500Y-22149450D01*
X72375500Y-17065554D01*
X72800000Y-17065554D01*
X72800000Y-17254445D01*
X72829546Y-17440996D01*
X72887914Y-17620635D01*
X72973666Y-17788934D01*
X73036750Y-17875760D01*
X73536065Y-17376444D01*
X73591898Y-17473147D01*
X73686853Y-17568102D01*
X73783553Y-17623932D01*
X73284237Y-18123248D01*
X73284237Y-18123249D01*
X73371057Y-18186328D01*
X73371063Y-18186332D01*
X73539364Y-18272085D01*
X73719003Y-18330453D01*
X73888365Y-18357277D01*
X73942881Y-18385054D01*
X73970659Y-18439571D01*
X73961088Y-18500003D01*
X73917823Y-18543268D01*
X73888365Y-18552839D01*
X73730593Y-18577828D01*
X73558362Y-18633788D01*
X73397008Y-18716002D01*
X73325142Y-18768216D01*
X73250499Y-18822447D01*
X73122447Y-18950499D01*
X73069225Y-19023752D01*
X73016002Y-19097008D01*
X72933788Y-19258362D01*
X72877828Y-19430593D01*
X72849500Y-19609450D01*
X72849500Y-19790549D01*
X72877828Y-19969406D01*
X72913454Y-20079055D01*
X72933789Y-20141639D01*
X73016004Y-20302994D01*
X73122447Y-20449501D01*
X73250499Y-20577553D01*
X73397006Y-20683996D01*
X73558361Y-20766211D01*
X73730591Y-20822171D01*
X73802136Y-20833502D01*
X73909451Y-20850500D01*
X73909454Y-20850500D01*
X74090549Y-20850500D01*
X74179977Y-20836335D01*
X74269409Y-20822171D01*
X74441639Y-20766211D01*
X74602994Y-20683996D01*
X74749501Y-20577553D01*
X74877553Y-20449501D01*
X74983996Y-20302994D01*
X75066211Y-20141639D01*
X75122171Y-19969409D01*
X75141810Y-19845413D01*
X75150500Y-19790549D01*
X75150500Y-19609450D01*
X75122488Y-19432594D01*
X75122171Y-19430591D01*
X75066211Y-19258361D01*
X74983996Y-19097006D01*
X74877553Y-18950499D01*
X74749501Y-18822447D01*
X74602994Y-18716004D01*
X74602993Y-18716003D01*
X74602991Y-18716002D01*
X74441637Y-18633788D01*
X74269406Y-18577828D01*
X74111634Y-18552839D01*
X74057117Y-18525061D01*
X74029340Y-18470545D01*
X74038911Y-18410113D01*
X74082176Y-18366848D01*
X74111634Y-18357277D01*
X74280996Y-18330453D01*
X74460635Y-18272085D01*
X74628936Y-18186332D01*
X74628941Y-18186328D01*
X74715761Y-18123249D01*
X74715761Y-18123248D01*
X74216445Y-17623933D01*
X74313147Y-17568102D01*
X74408102Y-17473147D01*
X74463933Y-17376445D01*
X74963248Y-17875761D01*
X74963249Y-17875761D01*
X75026328Y-17788941D01*
X75026332Y-17788936D01*
X75112085Y-17620635D01*
X75170453Y-17440996D01*
X75200000Y-17254445D01*
X75200000Y-17065554D01*
X75170453Y-16879003D01*
X75112085Y-16699364D01*
X75026332Y-16531063D01*
X75026328Y-16531057D01*
X74963249Y-16444237D01*
X74963248Y-16444237D01*
X74463932Y-16943553D01*
X74408102Y-16846853D01*
X74313147Y-16751898D01*
X74216444Y-16696065D01*
X74715760Y-16196750D01*
X74628934Y-16133666D01*
X74460635Y-16047914D01*
X74280996Y-15989546D01*
X74111634Y-15962722D01*
X74057117Y-15934944D01*
X74029340Y-15880428D01*
X74038911Y-15819996D01*
X74082176Y-15776731D01*
X74111634Y-15767160D01*
X74269409Y-15742171D01*
X74441639Y-15686211D01*
X74602994Y-15603996D01*
X74749501Y-15497553D01*
X74877553Y-15369501D01*
X74983996Y-15222994D01*
X75066211Y-15061639D01*
X75122171Y-14889409D01*
X75150500Y-14710546D01*
X75150500Y-14529454D01*
X75150500Y-14529450D01*
X75131614Y-14410212D01*
X75122171Y-14350591D01*
X75066211Y-14178361D01*
X74983996Y-14017006D01*
X74877553Y-13870499D01*
X74749501Y-13742447D01*
X74602994Y-13636004D01*
X74602993Y-13636003D01*
X74602991Y-13636002D01*
X74441637Y-13553788D01*
X74269406Y-13497828D01*
X74090549Y-13469500D01*
X74090546Y-13469500D01*
X73909454Y-13469500D01*
X73909451Y-13469500D01*
X73730593Y-13497828D01*
X73558362Y-13553788D01*
X73397008Y-13636002D01*
X73354280Y-13667046D01*
X73250499Y-13742447D01*
X73122447Y-13870499D01*
X73085797Y-13920944D01*
X73016002Y-14017008D01*
X72933788Y-14178362D01*
X72877828Y-14350593D01*
X72849500Y-14529450D01*
X72849500Y-14710549D01*
X72877828Y-14889406D01*
X72933788Y-15061637D01*
X73008909Y-15209071D01*
X73016004Y-15222994D01*
X73122447Y-15369501D01*
X73250499Y-15497553D01*
X73397006Y-15603996D01*
X73558361Y-15686211D01*
X73730591Y-15742171D01*
X73836356Y-15758922D01*
X73888365Y-15767160D01*
X73942881Y-15794937D01*
X73970659Y-15849454D01*
X73961088Y-15909886D01*
X73917823Y-15953151D01*
X73888365Y-15962722D01*
X73719003Y-15989546D01*
X73539364Y-16047914D01*
X73371063Y-16133667D01*
X73371059Y-16133669D01*
X73284237Y-16196749D01*
X73783554Y-16696066D01*
X73686853Y-16751898D01*
X73591898Y-16846853D01*
X73536066Y-16943554D01*
X73036749Y-16444237D01*
X72973669Y-16531059D01*
X72973667Y-16531063D01*
X72887914Y-16699364D01*
X72829546Y-16879003D01*
X72800000Y-17065554D01*
X72375500Y-17065554D01*
X72375500Y-11989450D01*
X72849500Y-11989450D01*
X72849500Y-12170549D01*
X72877828Y-12349406D01*
X72933788Y-12521637D01*
X72998937Y-12649500D01*
X73016004Y-12682994D01*
X73122447Y-12829501D01*
X73250499Y-12957553D01*
X73397006Y-13063996D01*
X73558361Y-13146211D01*
X73730591Y-13202171D01*
X73802136Y-13213502D01*
X73909451Y-13230500D01*
X73909454Y-13230500D01*
X74090549Y-13230500D01*
X74187090Y-13215209D01*
X74269409Y-13202171D01*
X74441639Y-13146211D01*
X74602994Y-13063996D01*
X74749501Y-12957553D01*
X74877553Y-12829501D01*
X74983996Y-12682994D01*
X75066211Y-12521639D01*
X75066214Y-12521628D01*
X75067703Y-12518038D01*
X75069267Y-12518685D01*
X75101440Y-12474406D01*
X75159629Y-12455500D01*
X80525500Y-12455500D01*
X80583691Y-12474407D01*
X80619655Y-12523907D01*
X80624500Y-12554500D01*
X80624500Y-34050500D01*
X80605593Y-34108691D01*
X80556093Y-34144655D01*
X80525500Y-34149500D01*
X80420943Y-34149500D01*
X80268216Y-34190423D01*
X80131284Y-34269480D01*
X80019480Y-34381284D01*
X79940423Y-34518216D01*
X79899500Y-34670943D01*
X79899500Y-34829057D01*
X79940423Y-34981784D01*
X80019480Y-35118716D01*
X80131284Y-35230520D01*
X80268216Y-35309577D01*
X80420943Y-35350500D01*
X80420945Y-35350500D01*
X80579055Y-35350500D01*
X80579057Y-35350500D01*
X80731784Y-35309577D01*
X80868716Y-35230520D01*
X80906729Y-35192506D01*
X80944741Y-35154496D01*
X80999258Y-35126719D01*
X81014744Y-35125500D01*
X81049433Y-35125500D01*
X81049435Y-35125500D01*
X81144938Y-35099910D01*
X81144940Y-35099908D01*
X81144942Y-35099908D01*
X81170377Y-35085222D01*
X81230562Y-35050475D01*
X81300475Y-34980562D01*
X81349910Y-34894938D01*
X81375500Y-34799435D01*
X81375500Y-12030565D01*
X81349910Y-11935062D01*
X81349908Y-11935059D01*
X81349908Y-11935057D01*
X81300476Y-11849440D01*
X81300475Y-11849438D01*
X81230562Y-11779525D01*
X81230559Y-11779523D01*
X81144941Y-11730091D01*
X81144943Y-11730091D01*
X81107885Y-11720161D01*
X81049435Y-11704500D01*
X81049433Y-11704500D01*
X75159629Y-11704500D01*
X75101438Y-11685593D01*
X75069266Y-11641314D01*
X75067703Y-11641962D01*
X75066213Y-11638367D01*
X75066212Y-11638366D01*
X75066211Y-11638361D01*
X74983996Y-11477006D01*
X74877553Y-11330499D01*
X74749501Y-11202447D01*
X74602994Y-11096004D01*
X74602993Y-11096003D01*
X74602991Y-11096002D01*
X74441637Y-11013788D01*
X74269406Y-10957828D01*
X74090549Y-10929500D01*
X74090546Y-10929500D01*
X73909454Y-10929500D01*
X73909451Y-10929500D01*
X73730593Y-10957828D01*
X73558362Y-11013788D01*
X73397008Y-11096002D01*
X73323752Y-11149225D01*
X73250499Y-11202447D01*
X73122447Y-11330499D01*
X73078571Y-11390890D01*
X73016002Y-11477008D01*
X72933788Y-11638362D01*
X72877828Y-11810593D01*
X72849500Y-11989450D01*
X72375500Y-11989450D01*
X72375500Y-10054743D01*
X72394407Y-9996552D01*
X72404490Y-9984745D01*
X72480520Y-9908716D01*
X72559577Y-9771784D01*
X72600500Y-9619057D01*
X72600500Y-9460943D01*
X72597420Y-9449450D01*
X72849500Y-9449450D01*
X72849500Y-9630549D01*
X72877828Y-9809406D01*
X72933788Y-9981637D01*
X72971037Y-10054743D01*
X73016004Y-10142994D01*
X73122447Y-10289501D01*
X73250499Y-10417553D01*
X73397006Y-10523996D01*
X73558361Y-10606211D01*
X73730591Y-10662171D01*
X73802136Y-10673502D01*
X73909451Y-10690500D01*
X73909454Y-10690500D01*
X74090549Y-10690500D01*
X74179977Y-10676335D01*
X74269409Y-10662171D01*
X74441639Y-10606211D01*
X74602994Y-10523996D01*
X74749501Y-10417553D01*
X74877553Y-10289501D01*
X74983996Y-10142994D01*
X75066211Y-9981639D01*
X75122171Y-9809409D01*
X75150500Y-9630546D01*
X75150500Y-9449454D01*
X75150500Y-9449450D01*
X75122171Y-9270593D01*
X75122171Y-9270591D01*
X75066211Y-9098361D01*
X74983996Y-8937006D01*
X74877553Y-8790499D01*
X74749501Y-8662447D01*
X74602994Y-8556004D01*
X74602993Y-8556003D01*
X74602991Y-8556002D01*
X74441637Y-8473788D01*
X74269406Y-8417828D01*
X74090549Y-8389500D01*
X74090546Y-8389500D01*
X73909454Y-8389500D01*
X73909451Y-8389500D01*
X73730593Y-8417828D01*
X73558362Y-8473788D01*
X73397008Y-8556002D01*
X73395932Y-8556784D01*
X73250499Y-8662447D01*
X73122447Y-8790499D01*
X73069225Y-8863752D01*
X73016002Y-8937008D01*
X72933788Y-9098362D01*
X72877828Y-9270593D01*
X72849500Y-9449450D01*
X72597420Y-9449450D01*
X72559577Y-9308216D01*
X72480520Y-9171284D01*
X72368716Y-9059480D01*
X72231784Y-8980423D01*
X72079057Y-8939500D01*
X71920943Y-8939500D01*
X71768216Y-8980423D01*
X71631284Y-9059480D01*
X71519480Y-9171284D01*
X71440423Y-9308216D01*
X71399500Y-9460943D01*
X66375500Y-9460943D01*
X66375500Y-9196545D01*
X66394407Y-9138354D01*
X66404496Y-9126541D01*
X67901541Y-7629496D01*
X67956058Y-7601719D01*
X67971545Y-7600500D01*
X68079055Y-7600500D01*
X68079057Y-7600500D01*
X68231784Y-7559577D01*
X68368716Y-7480520D01*
X68480520Y-7368716D01*
X68559577Y-7231784D01*
X68600500Y-7079057D01*
X68600500Y-6920943D01*
X68559577Y-6768216D01*
X68480520Y-6631284D01*
X68368716Y-6519480D01*
X68231784Y-6440423D01*
X68079057Y-6399500D01*
X67920943Y-6399500D01*
X67827642Y-6424500D01*
X67768216Y-6440423D01*
X67631284Y-6519480D01*
X67519480Y-6631284D01*
X67440423Y-6768216D01*
X67399500Y-6920944D01*
X67399500Y-7028455D01*
X67380593Y-7086646D01*
X67370504Y-7098459D01*
X65769438Y-8699525D01*
X65769437Y-8699524D01*
X65699524Y-8769438D01*
X65650091Y-8855057D01*
X65624500Y-8950566D01*
X65624500Y-44485256D01*
X65605593Y-44543447D01*
X65595504Y-44555259D01*
X65519482Y-44631281D01*
X65519480Y-44631283D01*
X65519480Y-44631284D01*
X65440423Y-44768216D01*
X65399500Y-44920943D01*
X44350500Y-44920943D01*
X44350500Y-31449500D01*
X44369407Y-31391309D01*
X44418907Y-31355345D01*
X44449500Y-31350500D01*
X47550500Y-31350500D01*
X47565412Y-31355345D01*
X47581093Y-31355345D01*
X47593778Y-31364561D01*
X47608691Y-31369407D01*
X47617907Y-31382092D01*
X47630593Y-31391309D01*
X47635438Y-31406221D01*
X47644655Y-31418907D01*
X47649500Y-31449500D01*
X47649500Y-31460257D01*
X47630593Y-31518448D01*
X47620509Y-31530254D01*
X47519480Y-31631284D01*
X47440423Y-31768216D01*
X47399500Y-31920943D01*
X47399500Y-32079057D01*
X47440423Y-32231784D01*
X47519480Y-32368716D01*
X47631284Y-32480520D01*
X47768216Y-32559577D01*
X47920943Y-32600500D01*
X47920945Y-32600500D01*
X48079055Y-32600500D01*
X48079057Y-32600500D01*
X48231784Y-32559577D01*
X48368716Y-32480520D01*
X48480520Y-32368716D01*
X48559577Y-32231784D01*
X48600500Y-32079057D01*
X48600500Y-31920943D01*
X48559577Y-31768216D01*
X48480520Y-31631284D01*
X48379494Y-31530258D01*
X48375869Y-31523143D01*
X48369407Y-31518448D01*
X48362243Y-31496399D01*
X48351719Y-31475744D01*
X48350500Y-31460257D01*
X48350500Y-31449500D01*
X48369407Y-31391309D01*
X48418907Y-31355345D01*
X48449500Y-31350500D01*
X50360257Y-31350500D01*
X50418448Y-31369407D01*
X50430254Y-31379490D01*
X50531284Y-31480520D01*
X50668216Y-31559577D01*
X50820943Y-31600500D01*
X50820945Y-31600500D01*
X50979055Y-31600500D01*
X50979057Y-31600500D01*
X51131784Y-31559577D01*
X51268716Y-31480520D01*
X51369741Y-31379494D01*
X51424256Y-31351719D01*
X51439743Y-31350500D01*
X61460257Y-31350500D01*
X61518448Y-31369407D01*
X61530254Y-31379490D01*
X61631284Y-31480520D01*
X61768216Y-31559577D01*
X61920943Y-31600500D01*
X61920945Y-31600500D01*
X62079055Y-31600500D01*
X62079057Y-31600500D01*
X62231784Y-31559577D01*
X62368716Y-31480520D01*
X62455498Y-31393737D01*
X62510013Y-31365962D01*
X62570445Y-31375533D01*
X62613710Y-31418798D01*
X62624500Y-31463743D01*
X62624500Y-33485256D01*
X62605593Y-33543447D01*
X62595504Y-33555259D01*
X62519482Y-33631281D01*
X62519480Y-33631283D01*
X62519480Y-33631284D01*
X62440423Y-33768216D01*
X62399500Y-33920943D01*
X62399500Y-34079057D01*
X62440423Y-34231784D01*
X62519480Y-34368716D01*
X62631284Y-34480520D01*
X62768216Y-34559577D01*
X62920943Y-34600500D01*
X62920945Y-34600500D01*
X63079055Y-34600500D01*
X63079057Y-34600500D01*
X63231784Y-34559577D01*
X63368716Y-34480520D01*
X63480520Y-34368716D01*
X63559577Y-34231784D01*
X63600500Y-34079057D01*
X63600500Y-33920943D01*
X63559577Y-33768216D01*
X63480520Y-33631284D01*
X63480517Y-33631281D01*
X63404496Y-33555259D01*
X63376719Y-33500742D01*
X63375500Y-33485256D01*
X63375500Y-20159063D01*
X63378873Y-20133440D01*
X63393445Y-20079055D01*
X63400500Y-20052727D01*
X63400500Y-19947273D01*
X63373207Y-19845413D01*
X63320480Y-19754087D01*
X63245913Y-19679520D01*
X63154587Y-19626793D01*
X63052727Y-19599500D01*
X63052725Y-19599500D01*
X54489744Y-19599500D01*
X54431553Y-19580593D01*
X54419741Y-19570504D01*
X54368718Y-19519482D01*
X54368716Y-19519480D01*
X54231784Y-19440423D01*
X54079057Y-19399500D01*
X53920943Y-19399500D01*
X53768216Y-19440423D01*
X53632277Y-19518907D01*
X53631281Y-19519482D01*
X53580259Y-19570504D01*
X53525742Y-19598281D01*
X53510256Y-19599500D01*
X52488743Y-19599500D01*
X52430552Y-19580593D01*
X52394588Y-19531093D01*
X52394588Y-19469907D01*
X52418737Y-19430498D01*
X52480520Y-19368716D01*
X52559577Y-19231784D01*
X52600500Y-19079057D01*
X52600500Y-18920943D01*
X52559577Y-18768216D01*
X52480520Y-18631284D01*
X52368716Y-18519480D01*
X52231784Y-18440423D01*
X52079057Y-18399500D01*
X51920943Y-18399500D01*
X51768216Y-18440423D01*
X51631284Y-18519480D01*
X51630258Y-18520505D01*
X51629331Y-18520977D01*
X51626134Y-18523431D01*
X51625679Y-18522838D01*
X51575744Y-18548281D01*
X51560257Y-18549500D01*
X23089174Y-18549500D01*
X23057867Y-18544420D01*
X20554784Y-17710059D01*
X20505559Y-17673720D01*
X20500361Y-17665649D01*
X20480520Y-17631284D01*
X20368716Y-17519480D01*
X20231784Y-17440423D01*
X20079057Y-17399500D01*
X19920943Y-17399500D01*
X19768216Y-17440423D01*
X19631284Y-17519480D01*
X19519480Y-17631284D01*
X19440423Y-17768216D01*
X19399500Y-17920943D01*
X600000Y-17920943D01*
X600000Y-16420943D01*
X24399500Y-16420943D01*
X24399500Y-16579057D01*
X24440423Y-16731784D01*
X24519480Y-16868716D01*
X24631284Y-16980520D01*
X24768216Y-17059577D01*
X24920943Y-17100500D01*
X24920945Y-17100500D01*
X25079055Y-17100500D01*
X25079057Y-17100500D01*
X25231784Y-17059577D01*
X25368716Y-16980520D01*
X25394229Y-16955006D01*
X25419741Y-16929496D01*
X25474258Y-16901719D01*
X25489744Y-16900500D01*
X40052725Y-16900500D01*
X40052727Y-16900500D01*
X40154587Y-16873207D01*
X40170945Y-16863763D01*
X40220444Y-16850500D01*
X42046142Y-16850500D01*
X42046144Y-16850500D01*
X42135288Y-16826614D01*
X42215212Y-16780469D01*
X42280469Y-16715212D01*
X42326614Y-16635288D01*
X42350500Y-16546144D01*
X42350500Y-13539743D01*
X42369407Y-13481552D01*
X42379490Y-13469745D01*
X42480520Y-13368716D01*
X42559577Y-13231784D01*
X42600500Y-13079057D01*
X42600500Y-12920943D01*
X42559577Y-12768216D01*
X42480520Y-12631284D01*
X42368716Y-12519480D01*
X42231784Y-12440423D01*
X42079057Y-12399500D01*
X41920943Y-12399500D01*
X41768216Y-12440423D01*
X41631284Y-12519480D01*
X41519480Y-12631284D01*
X41440423Y-12768216D01*
X41399500Y-12920943D01*
X41399500Y-13079057D01*
X41440423Y-13231784D01*
X41519480Y-13368716D01*
X41620505Y-13469741D01*
X41648281Y-13524256D01*
X41649500Y-13539743D01*
X41649500Y-16050500D01*
X41630593Y-16108691D01*
X41581093Y-16144655D01*
X41550500Y-16149500D01*
X40499500Y-16149500D01*
X40441309Y-16130593D01*
X40405345Y-16081093D01*
X40400500Y-16050500D01*
X40400500Y-6075327D01*
X72849500Y-6075327D01*
X72849500Y-7924672D01*
X72849501Y-7924684D01*
X72864033Y-7997736D01*
X72864035Y-7997742D01*
X72919397Y-8080599D01*
X72919399Y-8080601D01*
X73002260Y-8135966D01*
X73057808Y-8147015D01*
X73075315Y-8150498D01*
X73075320Y-8150498D01*
X73075326Y-8150500D01*
X73075327Y-8150500D01*
X74924673Y-8150500D01*
X74924674Y-8150500D01*
X74997740Y-8135966D01*
X75080601Y-8080601D01*
X75135966Y-7997740D01*
X75150500Y-7924674D01*
X75150500Y-6075326D01*
X75135966Y-6002260D01*
X75080601Y-5919399D01*
X75080599Y-5919397D01*
X74997742Y-5864035D01*
X74997740Y-5864034D01*
X74997737Y-5864033D01*
X74997736Y-5864033D01*
X74924684Y-5849501D01*
X74924674Y-5849500D01*
X73075326Y-5849500D01*
X73075325Y-5849500D01*
X73075315Y-5849501D01*
X73002263Y-5864033D01*
X73002257Y-5864035D01*
X72919400Y-5919397D01*
X72919397Y-5919400D01*
X72864035Y-6002257D01*
X72864033Y-6002263D01*
X72849501Y-6075315D01*
X72849500Y-6075327D01*
X40400500Y-6075327D01*
X40400500Y-2947274D01*
X40393445Y-2920943D01*
X40381930Y-2877969D01*
X79449500Y-2877969D01*
X79449500Y-3122030D01*
X79487677Y-3363071D01*
X79563096Y-3595185D01*
X79673892Y-3812637D01*
X79752348Y-3920623D01*
X79817345Y-4010083D01*
X79989917Y-4182655D01*
X80133369Y-4286878D01*
X80187362Y-4326107D01*
X80296088Y-4381505D01*
X80404815Y-4436904D01*
X80636924Y-4512321D01*
X80636925Y-4512321D01*
X80636928Y-4512322D01*
X80877970Y-4550500D01*
X80877973Y-4550500D01*
X81122030Y-4550500D01*
X81363071Y-4512322D01*
X81363072Y-4512321D01*
X81363076Y-4512321D01*
X81595185Y-4436904D01*
X81812639Y-4326106D01*
X82010083Y-4182655D01*
X82182655Y-4010083D01*
X82326106Y-3812639D01*
X82436904Y-3595185D01*
X82512321Y-3363076D01*
X82550500Y-3122027D01*
X82550500Y-2877973D01*
X82550500Y-2877969D01*
X82512322Y-2636928D01*
X82510488Y-2631284D01*
X82436904Y-2404815D01*
X82326106Y-2187361D01*
X82182655Y-1989917D01*
X82010083Y-1817345D01*
X81920623Y-1752348D01*
X81812637Y-1673892D01*
X81595185Y-1563096D01*
X81363071Y-1487677D01*
X81122030Y-1449500D01*
X81122027Y-1449500D01*
X80877973Y-1449500D01*
X80877970Y-1449500D01*
X80636928Y-1487677D01*
X80404814Y-1563096D01*
X80187362Y-1673892D01*
X79989918Y-1817344D01*
X79817344Y-1989918D01*
X79673892Y-2187362D01*
X79563096Y-2404814D01*
X79487677Y-2636928D01*
X79449500Y-2877969D01*
X40381930Y-2877969D01*
X40373207Y-2845413D01*
X40320480Y-2754087D01*
X40245913Y-2679520D01*
X40172141Y-2636928D01*
X40154589Y-2626794D01*
X40154588Y-2626793D01*
X40154587Y-2626793D01*
X40052727Y-2599500D01*
X40052725Y-2599500D01*
X28989744Y-2599500D01*
X28931553Y-2580593D01*
X28919741Y-2570504D01*
X28868718Y-2519482D01*
X28868716Y-2519480D01*
X28731784Y-2440423D01*
X28579057Y-2399500D01*
X28420943Y-2399500D01*
X28268216Y-2440423D01*
X28131284Y-2519480D01*
X28019480Y-2631284D01*
X27940423Y-2768216D01*
X27899500Y-2920943D01*
X27899500Y-3079057D01*
X27940423Y-3231784D01*
X28019480Y-3368716D01*
X28131284Y-3480520D01*
X28268216Y-3559577D01*
X28420943Y-3600500D01*
X28420945Y-3600500D01*
X28579055Y-3600500D01*
X28579057Y-3600500D01*
X28731784Y-3559577D01*
X28868716Y-3480520D01*
X28894229Y-3455006D01*
X28919741Y-3429496D01*
X28974258Y-3401719D01*
X28989744Y-3400500D01*
X39500500Y-3400500D01*
X39558691Y-3419407D01*
X39594655Y-3468907D01*
X39599500Y-3499500D01*
X39599500Y-16000500D01*
X39580593Y-16058691D01*
X39531093Y-16094655D01*
X39500500Y-16099500D01*
X25489744Y-16099500D01*
X25431553Y-16080593D01*
X25419741Y-16070504D01*
X25368718Y-16019482D01*
X25368716Y-16019480D01*
X25231784Y-15940423D01*
X25079057Y-15899500D01*
X24920943Y-15899500D01*
X24768216Y-15940423D01*
X24631284Y-16019480D01*
X24519480Y-16131284D01*
X24440423Y-16268216D01*
X24399500Y-16420943D01*
X600000Y-16420943D01*
X600000Y-7595943D01*
X13899500Y-7595943D01*
X13899500Y-7754057D01*
X13940423Y-7906784D01*
X14019480Y-8043716D01*
X14130505Y-8154741D01*
X14158281Y-8209256D01*
X14159500Y-8224743D01*
X14159500Y-8425256D01*
X14140593Y-8483447D01*
X14130504Y-8495259D01*
X14019482Y-8606281D01*
X14019480Y-8606283D01*
X14019480Y-8606284D01*
X13940423Y-8743216D01*
X13899500Y-8895943D01*
X13899500Y-9054057D01*
X13940423Y-9206784D01*
X14019480Y-9343716D01*
X14120505Y-9444741D01*
X14148281Y-9499256D01*
X14149500Y-9514743D01*
X14149500Y-11975090D01*
X14146497Y-11996112D01*
X14149500Y-12021037D01*
X14149500Y-12046142D01*
X14149501Y-12046153D01*
X14153173Y-12059859D01*
X14154995Y-12066661D01*
X14157536Y-12087738D01*
X14166884Y-12111029D01*
X14168421Y-12116764D01*
X14168423Y-12116770D01*
X14173386Y-12135288D01*
X14180485Y-12147583D01*
X14180486Y-12147586D01*
X14184005Y-12153682D01*
X14191914Y-12173385D01*
X14206973Y-12193463D01*
X14209945Y-12198611D01*
X14209950Y-12198618D01*
X14219531Y-12215212D01*
X14234545Y-12230226D01*
X14247287Y-12247215D01*
X14267031Y-12262713D01*
X14271224Y-12266906D01*
X14271233Y-12266914D01*
X14284789Y-12280470D01*
X14289981Y-12283467D01*
X14297085Y-12287568D01*
X14308702Y-12295423D01*
X14319882Y-12304199D01*
X14319885Y-12304200D01*
X14319886Y-12304201D01*
X14337506Y-12311727D01*
X14337507Y-12311727D01*
X14342971Y-12314061D01*
X14364712Y-12326614D01*
X14385222Y-12332109D01*
X14404752Y-12340452D01*
X14429608Y-12344002D01*
X14453856Y-12350500D01*
X14475088Y-12350500D01*
X20829870Y-13258325D01*
X20884801Y-13285272D01*
X20913403Y-13339360D01*
X20904750Y-13399931D01*
X20865368Y-13442066D01*
X20731286Y-13519478D01*
X20731284Y-13519480D01*
X20619480Y-13631284D01*
X20540423Y-13768216D01*
X20499500Y-13920943D01*
X20499500Y-14079057D01*
X20540423Y-14231784D01*
X20619480Y-14368716D01*
X20731284Y-14480520D01*
X20868216Y-14559577D01*
X21020943Y-14600500D01*
X21020945Y-14600500D01*
X21179055Y-14600500D01*
X21179057Y-14600500D01*
X21331784Y-14559577D01*
X21468716Y-14480520D01*
X21497978Y-14451258D01*
X21519741Y-14429496D01*
X21574258Y-14401719D01*
X21589744Y-14400500D01*
X27110256Y-14400500D01*
X27168447Y-14419407D01*
X27180259Y-14429496D01*
X27231281Y-14480517D01*
X27231284Y-14480520D01*
X27368216Y-14559577D01*
X27520943Y-14600500D01*
X27520945Y-14600500D01*
X27679055Y-14600500D01*
X27679057Y-14600500D01*
X27831784Y-14559577D01*
X27968716Y-14480520D01*
X27997978Y-14451258D01*
X28019741Y-14429496D01*
X28074258Y-14401719D01*
X28089744Y-14400500D01*
X29010256Y-14400500D01*
X29017851Y-14402967D01*
X29025741Y-14401718D01*
X29046398Y-14412243D01*
X29068447Y-14419407D01*
X29080258Y-14429495D01*
X29102022Y-14451258D01*
X29129801Y-14505774D01*
X29120231Y-14566206D01*
X29096775Y-14594412D01*
X29097275Y-14594912D01*
X29092688Y-14599498D01*
X29092686Y-14599500D01*
X29032686Y-14659500D01*
X28999497Y-14692689D01*
X28999496Y-14692690D01*
X28933609Y-14806809D01*
X28933608Y-14806814D01*
X28899500Y-14934108D01*
X28899500Y-15065892D01*
X28917060Y-15131428D01*
X28933609Y-15193190D01*
X28999496Y-15307309D01*
X28999498Y-15307311D01*
X28999500Y-15307314D01*
X29092686Y-15400500D01*
X29092688Y-15400501D01*
X29092690Y-15400503D01*
X29206810Y-15466390D01*
X29206808Y-15466390D01*
X29206812Y-15466391D01*
X29206814Y-15466392D01*
X29334108Y-15500500D01*
X29334110Y-15500500D01*
X29465890Y-15500500D01*
X29465892Y-15500500D01*
X29593186Y-15466392D01*
X29593188Y-15466390D01*
X29593190Y-15466390D01*
X29707309Y-15400503D01*
X29707309Y-15400502D01*
X29707314Y-15400500D01*
X29738319Y-15369495D01*
X29792836Y-15341719D01*
X29808322Y-15340500D01*
X30544829Y-15340500D01*
X30544829Y-15340499D01*
X30631428Y-15317295D01*
X30709072Y-15272468D01*
X30772468Y-15209072D01*
X30817295Y-15131428D01*
X30840500Y-15044828D01*
X30840500Y-13018032D01*
X30843330Y-12991396D01*
X30840500Y-12973396D01*
X30840500Y-12955172D01*
X30834920Y-12934351D01*
X30832751Y-12924114D01*
X30832253Y-12920944D01*
X30829405Y-12902828D01*
X30822010Y-12886169D01*
X30817295Y-12868572D01*
X30803900Y-12845370D01*
X30793030Y-12820883D01*
X30786443Y-12812730D01*
X30777714Y-12800015D01*
X30772468Y-12790928D01*
X30772466Y-12790926D01*
X30757226Y-12775685D01*
X30757226Y-12775686D01*
X30753520Y-12771980D01*
X30736687Y-12751145D01*
X30721959Y-12740419D01*
X30709072Y-12727532D01*
X30690402Y-12716752D01*
X30681624Y-12711044D01*
X30466668Y-12554500D01*
X28731836Y-11291089D01*
X28695929Y-11241551D01*
X28694502Y-11236725D01*
X28666392Y-11131814D01*
X28645716Y-11096002D01*
X28600503Y-11017690D01*
X28600501Y-11017688D01*
X28600500Y-11017686D01*
X28507314Y-10924500D01*
X28507311Y-10924498D01*
X28507309Y-10924496D01*
X28393189Y-10858609D01*
X28393191Y-10858609D01*
X28343799Y-10845375D01*
X28265892Y-10824500D01*
X28134108Y-10824500D01*
X28056200Y-10845375D01*
X28006809Y-10858609D01*
X27892690Y-10924496D01*
X27799496Y-11017690D01*
X27733609Y-11131809D01*
X27733608Y-11131814D01*
X27699500Y-11259108D01*
X27699500Y-11390892D01*
X27729579Y-11503151D01*
X27733609Y-11518190D01*
X27799496Y-11632309D01*
X27799498Y-11632311D01*
X27799500Y-11632314D01*
X27892686Y-11725500D01*
X27892688Y-11725501D01*
X27892690Y-11725503D01*
X28006810Y-11791390D01*
X28006808Y-11791390D01*
X28006812Y-11791391D01*
X28006814Y-11791392D01*
X28134108Y-11825500D01*
X28134110Y-11825500D01*
X28272381Y-11825500D01*
X28272381Y-11827605D01*
X28323198Y-11837014D01*
X28334256Y-11843998D01*
X30118782Y-13143599D01*
X30154689Y-13193137D01*
X30159500Y-13223624D01*
X30159500Y-13572891D01*
X30140593Y-13631082D01*
X30091093Y-13667046D01*
X30029907Y-13667046D01*
X29985394Y-13635586D01*
X29985108Y-13635873D01*
X29983440Y-13634205D01*
X29981957Y-13633157D01*
X29980522Y-13631287D01*
X29980521Y-13631286D01*
X29980520Y-13631284D01*
X29868716Y-13519480D01*
X29731784Y-13440423D01*
X29579057Y-13399500D01*
X29420943Y-13399500D01*
X29268216Y-13440423D01*
X29131288Y-13519478D01*
X29131281Y-13519482D01*
X29080259Y-13570504D01*
X29025742Y-13598281D01*
X29010256Y-13599500D01*
X28089744Y-13599500D01*
X28031553Y-13580593D01*
X28019741Y-13570504D01*
X27968718Y-13519482D01*
X27968716Y-13519480D01*
X27831784Y-13440423D01*
X27679057Y-13399500D01*
X27520943Y-13399500D01*
X27368216Y-13440423D01*
X27231288Y-13519478D01*
X27231281Y-13519482D01*
X27180259Y-13570504D01*
X27125742Y-13598281D01*
X27110256Y-13599500D01*
X21589744Y-13599500D01*
X21582146Y-13597031D01*
X21574258Y-13598281D01*
X21553604Y-13587757D01*
X21531553Y-13580593D01*
X21519741Y-13570504D01*
X21468740Y-13519504D01*
X21440962Y-13464988D01*
X21450533Y-13404556D01*
X21493797Y-13361291D01*
X21538743Y-13350500D01*
X22046142Y-13350500D01*
X22046144Y-13350500D01*
X22135288Y-13326614D01*
X22215212Y-13280469D01*
X22280469Y-13215212D01*
X22326614Y-13135288D01*
X22350500Y-13046144D01*
X22350500Y-8539743D01*
X22369407Y-8481552D01*
X22379490Y-8469745D01*
X22480520Y-8368716D01*
X22559577Y-8231784D01*
X22600500Y-8079057D01*
X22600500Y-7920943D01*
X22559577Y-7768216D01*
X22480520Y-7631284D01*
X22368716Y-7519480D01*
X22231784Y-7440423D01*
X22079057Y-7399500D01*
X21920943Y-7399500D01*
X21768216Y-7440423D01*
X21631284Y-7519480D01*
X21519480Y-7631284D01*
X21440423Y-7768216D01*
X21399500Y-7920943D01*
X21399500Y-8079057D01*
X21440423Y-8231784D01*
X21519480Y-8368716D01*
X21620505Y-8469741D01*
X21648281Y-8524256D01*
X21649500Y-8539743D01*
X21649500Y-12550500D01*
X21644655Y-12565411D01*
X21644655Y-12581093D01*
X21635438Y-12593778D01*
X21630593Y-12608691D01*
X21617907Y-12617907D01*
X21608691Y-12630593D01*
X21593778Y-12635438D01*
X21581093Y-12644655D01*
X21550500Y-12649500D01*
X21531949Y-12649500D01*
X21517948Y-12648505D01*
X14935499Y-11708154D01*
X14880567Y-11681207D01*
X14851965Y-11627119D01*
X14850500Y-11610149D01*
X14850500Y-9514743D01*
X14869407Y-9456552D01*
X14879490Y-9444745D01*
X14980520Y-9343716D01*
X15059577Y-9206784D01*
X15100500Y-9054057D01*
X15100500Y-8895943D01*
X15059577Y-8743216D01*
X14980520Y-8606284D01*
X14930238Y-8556002D01*
X14869496Y-8495259D01*
X14841719Y-8440743D01*
X14840500Y-8425256D01*
X14840500Y-8224743D01*
X14859407Y-8166552D01*
X14869490Y-8154745D01*
X14980520Y-8043716D01*
X15059577Y-7906784D01*
X15100500Y-7754057D01*
X15100500Y-7595943D01*
X15059577Y-7443216D01*
X14980520Y-7306284D01*
X14868716Y-7194480D01*
X14731784Y-7115423D01*
X14579057Y-7074500D01*
X14420943Y-7074500D01*
X14268216Y-7115423D01*
X14131284Y-7194480D01*
X14019480Y-7306284D01*
X13940423Y-7443216D01*
X13899500Y-7595943D01*
X600000Y-7595943D01*
X600000Y-6945943D01*
X15199500Y-6945943D01*
X15199500Y-7104057D01*
X15240423Y-7256784D01*
X15319480Y-7393716D01*
X15430505Y-7504741D01*
X15458281Y-7559256D01*
X15459500Y-7574743D01*
X15459500Y-7775256D01*
X15440593Y-7833447D01*
X15430504Y-7845259D01*
X15319482Y-7956281D01*
X15319480Y-7956283D01*
X15319480Y-7956284D01*
X15240423Y-8093216D01*
X15199500Y-8245943D01*
X15199500Y-8404057D01*
X15240423Y-8556784D01*
X15319480Y-8693716D01*
X15431284Y-8805520D01*
X15568216Y-8884577D01*
X15720943Y-8925500D01*
X15720945Y-8925500D01*
X15879055Y-8925500D01*
X15879057Y-8925500D01*
X16031784Y-8884577D01*
X16168716Y-8805520D01*
X16280520Y-8693716D01*
X16359577Y-8556784D01*
X16400500Y-8404057D01*
X16400500Y-8245943D01*
X16359577Y-8093216D01*
X16280520Y-7956284D01*
X16231019Y-7906783D01*
X16169496Y-7845259D01*
X16141719Y-7790743D01*
X16140500Y-7775256D01*
X16140500Y-7574743D01*
X16159407Y-7516552D01*
X16169490Y-7504745D01*
X16280520Y-7393716D01*
X16359577Y-7256784D01*
X16400500Y-7104057D01*
X16400500Y-6945943D01*
X16359577Y-6793216D01*
X16280520Y-6656284D01*
X16168716Y-6544480D01*
X16031784Y-6465423D01*
X15879057Y-6424500D01*
X15720943Y-6424500D01*
X15568216Y-6465423D01*
X15431284Y-6544480D01*
X15319480Y-6656284D01*
X15240423Y-6793216D01*
X15199500Y-6945943D01*
X600000Y-6945943D01*
X600000Y-2877969D01*
X1449500Y-2877969D01*
X1449500Y-3122030D01*
X1487677Y-3363071D01*
X1563096Y-3595185D01*
X1673892Y-3812637D01*
X1752348Y-3920623D01*
X1817345Y-4010083D01*
X1989917Y-4182655D01*
X2133369Y-4286878D01*
X2187362Y-4326107D01*
X2296088Y-4381505D01*
X2404815Y-4436904D01*
X2636924Y-4512321D01*
X2636925Y-4512321D01*
X2636928Y-4512322D01*
X2877970Y-4550500D01*
X2877973Y-4550500D01*
X3122030Y-4550500D01*
X3363071Y-4512322D01*
X3363072Y-4512321D01*
X3363076Y-4512321D01*
X3595185Y-4436904D01*
X3812639Y-4326106D01*
X4010083Y-4182655D01*
X4182655Y-4010083D01*
X4326106Y-3812639D01*
X4436904Y-3595185D01*
X4512321Y-3363076D01*
X4550500Y-3122027D01*
X4550500Y-2877973D01*
X4550500Y-2877969D01*
X4512322Y-2636928D01*
X4510488Y-2631284D01*
X4436904Y-2404815D01*
X4326106Y-2187361D01*
X4182655Y-1989917D01*
X4010083Y-1817345D01*
X3920623Y-1752348D01*
X3812637Y-1673892D01*
X3595185Y-1563096D01*
X3363071Y-1487677D01*
X3122030Y-1449500D01*
X3122027Y-1449500D01*
X2877973Y-1449500D01*
X2877970Y-1449500D01*
X2636928Y-1487677D01*
X2404814Y-1563096D01*
X2187362Y-1673892D01*
X1989918Y-1817344D01*
X1817344Y-1989918D01*
X1673892Y-2187362D01*
X1563096Y-2404814D01*
X1487677Y-2636928D01*
X1449500Y-2877969D01*
X600000Y-2877969D01*
X600000Y-699000D01*
X618907Y-640809D01*
X668407Y-604845D01*
X699000Y-600000D01*
X83301000Y-600000D01*
X83359191Y-618907D01*
G37*
%TD.AperFunction*%
%TD*%
M02*
